<svg width="503" height="362" viewBox="0 0 503 362" fill="none" xmlns="http://www.w3.org/2000/svg">
<g clip-path="url(#clip0_364:244)">
<path opacity="0.1" d="M243.387 351.898C377.806 351.898 486.774 346.417 486.774 339.655C486.774 332.894 377.806 327.412 243.387 327.412C108.968 327.412 0 332.894 0 339.655C0 346.417 108.968 351.898 243.387 351.898Z" fill="#12DA97"/>
<g opacity="0.2">
<path opacity="0.2" d="M437.099 300.521C436.895 300.909 436.658 301.279 436.388 301.625C434.028 299.948 431.619 298.309 429.163 296.709C429.211 296.603 429.263 296.497 429.321 296.392C429.887 295.288 430.735 294.357 431.778 293.693C433.129 292.858 434.642 292.671 435.906 293.338C437.171 294.006 437.863 295.384 437.935 296.968C437.977 298.206 437.689 299.433 437.099 300.521Z" fill="#3F3D56"/>
<path opacity="0.2" d="M440.413 294.289C441.902 291.46 441.368 288.24 439.221 287.096C437.073 285.951 434.125 287.316 432.636 290.145C431.147 292.973 431.681 296.193 433.828 297.338C435.976 298.482 438.924 297.117 440.413 294.289Z" fill="#3F3D56"/>
<path opacity="0.2" d="M443.711 288.023C445.2 285.195 444.666 281.974 442.519 280.83C440.371 279.686 437.423 281.051 435.934 283.879C434.445 286.707 434.979 289.928 437.126 291.072C439.274 292.216 442.222 290.851 443.711 288.023Z" fill="#3F3D56"/>
<path opacity="0.2" d="M447.007 281.767C448.496 278.938 447.962 275.718 445.815 274.574C443.668 273.429 440.72 274.794 439.23 277.622C437.741 280.451 438.275 283.671 440.422 284.815C442.57 285.96 445.518 284.595 447.007 281.767Z" fill="#3F3D56"/>
<path opacity="0.2" d="M450.305 275.501C451.794 272.673 451.26 269.452 449.113 268.308C446.966 267.164 444.018 268.529 442.529 271.357C441.039 274.185 441.573 277.405 443.721 278.55C445.868 279.694 448.816 278.329 450.305 275.501Z" fill="#3F3D56"/>
<path opacity="0.2" d="M454.389 222.77C454.218 221.807 454.111 220.834 454.07 219.856L465.184 223.611L454.084 217.806C454.244 214.919 454.989 212.096 456.272 209.51C457.556 206.923 459.351 204.628 461.548 202.764L472.305 218.406L463.953 201.002C466.407 199.461 469.15 198.445 472.011 198.017C474.872 197.589 477.79 197.757 480.583 198.512C483.377 199.267 485.986 200.592 488.249 202.405C490.511 204.217 492.379 206.479 493.736 209.049C495.092 211.619 495.909 214.443 496.134 217.344C496.36 220.245 495.989 223.162 495.046 225.913C494.103 228.664 492.608 231.19 490.653 233.335C488.697 235.48 486.325 237.197 483.682 238.379C483.955 239.88 484.063 241.406 484.006 242.931L467.088 242.796L483.753 245.557C483.382 247.841 482.644 250.05 481.568 252.096C479.368 256.305 475.822 259.644 471.503 261.574C472.21 265.491 471.808 269.531 470.341 273.229C468.875 276.928 466.403 280.136 463.209 282.488C460.015 284.84 456.227 286.24 452.28 286.528C448.332 286.816 444.383 285.981 440.886 284.117C437.388 282.254 434.481 279.438 432.499 275.991C430.517 272.544 429.54 268.606 429.678 264.626C429.816 260.647 431.065 256.787 433.281 253.487C435.497 250.188 438.592 247.583 442.21 245.97C441.361 241.289 442.101 236.457 444.309 232.25C446.518 228.042 450.068 224.704 454.389 222.77Z" fill="#12DA97"/>
<path opacity="0.1" d="M481.568 252.11C479.366 256.314 475.82 259.648 471.503 261.574C472.21 265.491 471.808 269.531 470.341 273.229C468.875 276.928 466.403 280.136 463.209 282.488C460.015 284.84 456.227 286.24 452.28 286.528C448.332 286.816 444.384 285.981 440.886 284.117C437.388 282.254 434.481 279.438 432.499 275.991C430.517 272.544 429.54 268.606 429.678 264.626C429.816 260.647 431.065 256.787 433.281 253.487C435.497 250.188 438.592 247.583 442.21 245.97C441.37 241.447 482.675 250.003 481.568 252.11Z" fill="black"/>
</g>
<g opacity="0.2">
<path opacity="0.2" d="M423.885 175.387C423.632 176.052 423.324 176.695 422.964 177.308C418.828 175.087 414.631 172.926 410.375 170.826C410.437 170.649 410.499 170.466 410.565 170.284C411.261 168.407 412.44 166.75 413.982 165.483C415.987 163.869 418.397 163.26 420.544 164.081C422.692 164.902 424.09 166.961 424.524 169.506C424.835 171.489 424.614 173.519 423.885 175.387Z" fill="#3F3D56"/>
<path opacity="0.2" d="M428.954 167.646C430.809 162.825 429.346 157.761 425.687 156.336C422.027 154.911 417.557 157.664 415.702 162.485C413.847 167.306 415.31 172.369 418.969 173.795C422.629 175.22 427.099 172.467 428.954 167.646Z" fill="#3F3D56"/>
<path opacity="0.2" d="M432.013 153.96C433.846 149.116 432.351 144.046 428.673 142.638C424.996 141.23 420.528 144.015 418.695 148.86C416.862 153.705 418.357 158.774 422.035 160.182C425.712 161.591 430.18 158.805 432.013 153.96Z" fill="#3F3D56"/>
<path opacity="0.2" d="M436.067 143.24C437.9 138.396 436.405 133.326 432.727 131.918C429.05 130.509 424.582 133.295 422.749 138.14C420.916 142.985 422.411 148.054 426.089 149.462C429.766 150.871 434.234 148.085 436.067 143.24Z" fill="#3F3D56"/>
<path opacity="0.2" d="M440.126 132.515C441.959 127.671 440.464 122.601 436.786 121.193C433.108 119.785 428.641 122.57 426.808 127.415C424.975 132.26 426.47 137.329 430.148 138.737C433.825 140.146 438.293 137.36 440.126 132.515Z" fill="#3F3D56"/>
<path opacity="0.2" d="M436.274 47.0469C435.804 45.533 435.438 43.9881 435.181 42.4233L453.793 46.2355L434.813 39.1297C434.496 34.4557 435.132 29.7659 436.681 25.348C438.231 20.9301 440.661 16.8773 443.824 13.4385L464.201 36.417L447.336 10.1305C450.976 7.17256 455.181 4.99901 459.691 3.74485C464.201 2.49068 468.919 2.18268 473.552 2.83997C478.186 3.49727 482.635 5.10582 486.624 7.56573C490.614 10.0256 494.058 13.2844 496.743 17.1397C499.428 20.9949 501.296 25.3643 502.232 29.9765C503.168 34.5888 503.152 39.3453 502.184 43.9509C501.216 48.5564 499.317 52.9126 496.606 56.7489C493.894 60.5852 490.427 63.8197 486.421 66.2516C487.155 68.608 487.635 71.037 487.853 73.4966L460.651 76.6702L487.967 77.7697C487.756 83.4791 486.133 89.0453 483.244 93.964C480.355 98.8827 476.291 102.998 471.422 105.938C473.33 112.089 473.48 118.656 471.855 124.888C470.229 131.121 466.893 136.767 462.228 141.182C457.562 145.597 451.757 148.603 445.474 149.855C439.192 151.107 432.685 150.556 426.7 148.264C420.714 145.971 415.49 142.031 411.625 136.893C407.76 131.755 405.41 125.626 404.843 119.208C404.277 112.79 405.517 106.341 408.422 100.598C411.327 94.8553 415.779 90.0507 421.27 86.7335C418.988 79.3837 419.226 71.4757 421.947 64.2788C424.668 57.0818 429.714 51.0132 436.274 47.0469Z" fill="#12DA97"/>
<path opacity="0.1" d="M485.744 88.702C483.035 95.9021 477.991 101.972 471.427 105.929C473.335 112.079 473.485 118.646 471.859 124.879C470.234 131.111 466.897 136.758 462.232 141.173C457.567 145.588 451.762 148.593 445.479 149.845C439.196 151.098 432.69 150.546 426.705 148.254C420.719 145.962 415.495 142.021 411.63 136.883C407.765 131.745 405.415 125.617 404.848 119.199C404.282 112.78 405.522 106.331 408.427 100.588C411.332 94.8458 415.784 90.0412 421.275 86.7239C419.046 79.6277 487.104 85.0963 485.744 88.702Z" fill="black"/>
</g>
<g opacity="0.2">
<path opacity="0.2" d="M96.2619 211.055C96.4637 211.877 96.7335 212.68 97.0685 213.456C102.28 211.443 107.548 209.522 112.874 207.695C112.827 207.479 112.779 207.248 112.726 207.027C112.18 204.699 111.027 202.56 109.386 200.829C107.257 198.625 104.499 197.55 101.846 198.203C99.1921 198.856 97.2355 201.083 96.3574 204.017C95.7027 206.313 95.6697 208.743 96.2619 211.055Z" fill="#3F3D56"/>
<path opacity="0.2" d="M103.929 206.609C108.476 205.492 110.985 199.731 109.531 193.742C108.078 187.753 103.213 183.803 98.6658 184.92C94.1184 186.037 91.6102 191.798 93.0636 197.787C94.517 203.776 99.3816 207.726 103.929 206.609Z" fill="#3F3D56"/>
<path opacity="0.2" d="M100.71 193.351C105.257 192.234 107.765 186.473 106.312 180.484C104.858 174.495 99.9937 170.545 95.4463 171.662C90.8989 172.779 88.3907 178.54 89.8441 184.529C91.2976 190.518 96.1621 194.468 100.71 193.351Z" fill="#3F3D56"/>
<path opacity="0.2" d="M97.4913 180.102C102.039 178.986 104.547 173.225 103.093 167.236C101.64 161.247 96.7754 157.297 92.228 158.414C87.6806 159.531 85.1725 165.292 86.6259 171.281C88.0793 177.27 92.9439 181.219 97.4913 180.102Z" fill="#3F3D56"/>
<path opacity="0.2" d="M94.2823 166.853C98.8297 165.736 101.338 159.975 99.8844 153.986C98.431 147.997 93.5664 144.048 89.019 145.165C84.4717 146.281 81.9635 152.042 83.4169 158.031C84.8703 164.02 89.7349 167.97 94.2823 166.853Z" fill="#3F3D56"/>
<path opacity="0.2" d="M100.452 57.7631C101.229 56.0511 101.886 54.2863 102.418 52.4818L79.9216 54.2198L103.358 48.6505C104.411 43.1867 104.344 37.5644 103.162 32.1274C101.981 26.6905 99.7091 21.5532 96.4862 17.0298L69.0694 41.1174L92.8259 12.6031C88.9749 8.53932 84.3324 5.31804 79.1883 3.14052C74.0442 0.962996 68.5091 -0.123988 62.9286 -0.0525402C57.3482 0.0189078 51.8424 1.24725 46.755 3.55577C41.6677 5.86429 37.1081 9.20338 33.3612 13.3645C29.6143 17.5256 26.7605 22.4193 24.9781 27.7399C23.1956 33.0605 22.5229 38.6937 23.0018 44.2877C23.4807 49.8817 25.1011 55.3162 27.7616 60.2518C30.4221 65.1874 34.0657 69.5181 38.4647 72.9733C37.2546 75.6458 36.3346 78.4419 35.7206 81.3129L67.3609 89.0956L34.9666 86.335C34.3812 93.1041 35.4828 99.9132 38.1718 106.146C40.8608 112.379 45.0522 117.839 50.3668 122.032C47.2088 129.007 46.0655 136.735 47.0678 144.333C48.0701 151.931 51.1775 159.092 56.0346 164.997C60.8917 170.902 67.3024 175.312 74.5338 177.724C81.7652 180.136 89.5253 180.452 96.9268 178.636C104.328 176.82 111.072 172.945 116.388 167.454C121.703 161.964 125.376 155.079 126.985 147.587C128.595 140.096 128.076 132.3 125.489 125.091C122.901 117.882 118.35 111.551 112.354 106.822C116.126 98.4862 117.003 89.1169 114.845 80.2195C112.686 71.322 107.617 63.4129 100.452 57.7631Z" fill="#12DA97"/>
<path opacity="0.1" d="M35.9736 99.5863C38.1201 108.49 43.1917 116.404 50.3668 122.046C47.2109 129.022 46.0698 136.75 47.0741 144.348C48.0784 151.945 51.1875 159.105 56.0459 165.009C60.9043 170.912 67.316 175.321 74.5477 177.731C81.7794 180.141 89.5394 180.456 96.9402 178.638C104.341 176.82 111.084 172.944 116.398 167.452C121.713 161.961 125.384 155.076 126.992 147.584C128.6 140.092 128.08 132.296 125.491 125.088C122.903 117.88 118.35 111.55 112.354 106.822C116.005 98.7749 34.895 95.1356 35.9736 99.5863Z" fill="black"/>
</g>
<path d="M457.262 47.0469H58.9093C57.9672 47.0494 57.0646 47.4281 56.3997 48.0996C55.7349 48.7712 55.3622 49.6807 55.3634 50.6286V295.897C55.3603 296.845 55.5431 297.784 55.9015 298.661C56.2598 299.537 56.7866 300.334 57.4517 301.005C58.1167 301.677 58.9069 302.209 59.777 302.573C60.647 302.936 61.5798 303.123 62.5219 303.123H453.664C454.606 303.123 455.539 302.936 456.409 302.573C457.279 302.209 458.069 301.677 458.734 301.005C459.399 300.334 459.926 299.537 460.284 298.661C460.643 297.784 460.826 296.845 460.823 295.897V50.6238C460.823 50.1536 460.73 49.6881 460.551 49.2538C460.372 48.8196 460.11 48.425 459.78 48.0928C459.449 47.7606 459.056 47.4972 458.624 47.3178C458.193 47.1383 457.73 47.0462 457.262 47.0469Z" fill="url(#paint0_linear_364:244)"/>
<path d="M459.2 62.2714V294.452C459.2 296.346 458.452 298.162 457.122 299.502C455.791 300.842 453.986 301.595 452.103 301.596H64.1396C62.2571 301.595 60.4521 300.842 59.1214 299.502C57.7907 298.162 57.0432 296.346 57.0432 294.452V62.2714H459.2Z" fill="white"/>
<path d="M459.2 51.9537V62.2714H57.0432V51.9537C57.0426 51.4886 57.1331 51.0279 57.3096 50.5981C57.486 50.1682 57.745 49.7776 58.0717 49.4485C58.3984 49.1194 58.7863 48.8583 59.2133 48.6802C59.6404 48.5021 60.0981 48.4104 60.5604 48.4104H455.707C456.636 48.4167 457.525 48.793 458.18 49.4569C458.834 50.1209 459.201 51.0185 459.2 51.9537Z" fill="#DDEAE9"/>
<path opacity="0.8" d="M63.4143 56.8941C64.3236 56.8941 65.0607 56.1525 65.0607 55.2377C65.0607 54.3228 64.3236 53.5812 63.4143 53.5812C62.505 53.5812 61.7678 54.3228 61.7678 55.2377C61.7678 56.1525 62.505 56.8941 63.4143 56.8941Z" fill="#FA5959"/>
<path opacity="0.8" d="M67.9384 56.8941C68.8477 56.8941 69.5849 56.1525 69.5849 55.2377C69.5849 54.3228 68.8477 53.5812 67.9384 53.5812C67.0291 53.5812 66.292 54.3228 66.292 55.2377C66.292 56.1525 67.0291 56.8941 67.9384 56.8941Z" fill="#FED253"/>
<path opacity="0.8" d="M72.4626 56.8941C73.3719 56.8941 74.109 56.1525 74.109 55.2377C74.109 54.3228 73.3719 53.5812 72.4626 53.5812C71.5533 53.5812 70.8162 54.3228 70.8162 55.2377C70.8162 56.1525 71.5533 56.8941 72.4626 56.8941Z" fill="#8CCF4D"/>
<path d="M281.522 42.4953V40.8389H279.055V42.4953H281.522Z" fill="url(#paint1_linear_364:244)"/>
<path d="M188.186 82.6237H149.53V86.7623H188.186V82.6237Z" fill="#EDEDF4"/>
<path d="M366.646 94.6171H149.53V98.7557H366.646V94.6171Z" fill="#EDEDF4"/>
<path d="M366.646 106.615H149.53V110.754H366.646V106.615Z" fill="#EDEDF4"/>
<path d="M366.646 118.613H149.53V122.752H366.646V118.613Z" fill="#EDEDF4"/>
<path d="M366.646 130.612H149.53V134.75H366.646V130.612Z" fill="#EDEDF4"/>
<path d="M303.046 153.494H212.992C200.842 153.494 190.992 163.344 190.992 175.494V235.747C190.992 247.897 200.842 257.747 212.992 257.747H303.046C315.196 257.747 325.046 247.897 325.046 235.747V175.494C325.046 163.344 315.196 153.494 303.046 153.494Z" fill="#DDEAE9"/>
<path d="M432.179 362C439.261 362 445.002 360.889 445.002 359.518C445.002 358.147 439.261 357.036 432.179 357.036C425.097 357.036 419.356 358.147 419.356 359.518C419.356 360.889 425.097 362 432.179 362Z" fill="#12DA97"/>
<path d="M431.964 360.43C432.789 360.43 433.458 359.551 433.458 358.466C433.458 357.382 432.789 356.503 431.964 356.503C431.139 356.503 430.471 357.382 430.471 358.466C430.471 359.551 431.139 360.43 431.964 360.43Z" fill="#3F3D56"/>
<path d="M431.964 358.025C432.789 358.025 433.458 357.145 433.458 356.061C433.458 354.976 432.789 354.097 431.964 354.097C431.139 354.097 430.471 354.976 430.471 356.061C430.471 357.145 431.139 358.025 431.964 358.025Z" fill="#3F3D56"/>
<path d="M431.964 355.624C432.789 355.624 433.458 354.745 433.458 353.66C433.458 352.576 432.789 351.697 431.964 351.697C431.139 351.697 430.471 352.576 430.471 353.66C430.471 354.745 431.139 355.624 431.964 355.624Z" fill="#3F3D56"/>
<path d="M431.964 353.219C432.789 353.219 433.458 352.339 433.458 351.255C433.458 350.17 432.789 349.291 431.964 349.291C431.139 349.291 430.471 350.17 430.471 351.255C430.471 352.339 431.139 353.219 431.964 353.219Z" fill="#3F3D56"/>
<path d="M431.964 350.818C432.789 350.818 433.458 349.939 433.458 348.854C433.458 347.77 432.789 346.891 431.964 346.891C431.139 346.891 430.471 347.77 430.471 348.854C430.471 349.939 431.139 350.818 431.964 350.818Z" fill="#3F3D56"/>
<path d="M431.964 348.417C432.789 348.417 433.458 347.538 433.458 346.454C433.458 345.369 432.789 344.49 431.964 344.49C431.139 344.49 430.471 345.369 430.471 346.454C430.471 347.538 431.139 348.417 431.964 348.417Z" fill="#3F3D56"/>
<path d="M431.964 346.012C432.789 346.012 433.458 345.133 433.458 344.048C433.458 342.964 432.789 342.085 431.964 342.085C431.139 342.085 430.471 342.964 430.471 344.048C430.471 345.133 431.139 346.012 431.964 346.012Z" fill="#3F3D56"/>
<path d="M437.553 327.604C437.757 327.344 437.942 327.07 438.106 326.783L434.188 326.135L438.426 326.164C438.835 325.274 439.059 324.309 439.083 323.329C439.107 322.349 438.93 321.374 438.565 320.465L432.871 323.437L438.121 319.553C437.637 318.681 436.979 317.92 436.187 317.319C435.396 316.717 434.488 316.287 433.523 316.057C432.558 315.826 431.555 315.8 430.579 315.98C429.604 316.161 428.676 316.543 427.854 317.103C427.033 317.663 426.337 318.388 425.809 319.234C425.281 320.079 424.934 321.025 424.789 322.013C424.644 323 424.705 324.007 424.968 324.97C425.23 325.932 425.689 326.829 426.314 327.604C425.995 328.009 425.721 328.449 425.498 328.915L430.59 331.58L425.159 329.746C424.779 330.879 424.685 332.091 424.887 333.27C425.088 334.45 425.579 335.56 426.314 336.501C425.481 337.563 424.962 338.839 424.817 340.183C424.672 341.528 424.905 342.887 425.492 344.104C426.078 345.321 426.993 346.347 428.133 347.065C429.272 347.783 430.589 348.164 431.933 348.164C433.278 348.164 434.595 347.783 435.734 347.065C436.873 346.347 437.789 345.321 438.375 344.104C438.961 342.887 439.195 341.528 439.05 340.183C438.905 338.839 438.386 337.563 437.553 336.501C438.543 335.232 439.082 333.666 439.082 332.053C439.082 330.439 438.543 328.873 437.553 327.604Z" fill="#12DA97"/>
<path opacity="0.1" d="M424.782 332.05C424.779 333.665 425.319 335.233 426.314 336.501C425.481 337.563 424.962 338.839 424.817 340.183C424.671 341.528 424.905 342.887 425.492 344.104C426.078 345.321 426.993 346.347 428.133 347.065C429.272 347.783 430.589 348.164 431.933 348.164C433.278 348.164 434.595 347.783 435.734 347.065C436.873 346.347 437.789 345.321 438.375 344.104C438.961 342.887 439.195 341.528 439.05 340.183C438.904 338.839 438.386 337.563 437.553 336.501C438.512 335.277 424.782 331.243 424.782 332.05Z" fill="black"/>
<path d="M36.7372 328.584C39.9422 328.584 42.5403 328.081 42.5403 327.46C42.5403 326.84 39.9422 326.337 36.7372 326.337C33.5322 326.337 30.9341 326.84 30.9341 327.46C30.9341 328.081 33.5322 328.584 36.7372 328.584Z" fill="#12DA97"/>
<path d="M36.6369 327.873C37.0112 327.873 37.3146 327.475 37.3146 326.985C37.3146 326.494 37.0112 326.097 36.6369 326.097C36.2626 326.097 35.9592 326.494 35.9592 326.985C35.9592 327.475 36.2626 327.873 36.6369 327.873Z" fill="#3F3D56"/>
<path d="M36.6369 326.783C37.0112 326.783 37.3146 326.386 37.3146 325.895C37.3146 325.405 37.0112 325.007 36.6369 325.007C36.2626 325.007 35.9592 325.405 35.9592 325.895C35.9592 326.386 36.2626 326.783 36.6369 326.783Z" fill="#3F3D56"/>
<path d="M36.6369 325.698C37.0112 325.698 37.3146 325.301 37.3146 324.81C37.3146 324.319 37.0112 323.922 36.6369 323.922C36.2626 323.922 35.9592 324.319 35.9592 324.81C35.9592 325.301 36.2626 325.698 36.6369 325.698Z" fill="#3F3D56"/>
<path d="M36.6369 324.608C37.0112 324.608 37.3146 324.211 37.3146 323.72C37.3146 323.23 37.0112 322.832 36.6369 322.832C36.2626 322.832 35.9592 323.23 35.9592 323.72C35.9592 324.211 36.2626 324.608 36.6369 324.608Z" fill="#3F3D56"/>
<path d="M36.6369 323.523C37.0112 323.523 37.3146 323.126 37.3146 322.635C37.3146 322.144 37.0112 321.747 36.6369 321.747C36.2626 321.747 35.9592 322.144 35.9592 322.635C35.9592 323.126 36.2626 323.523 36.6369 323.523Z" fill="#3F3D56"/>
<path d="M36.6369 322.433C37.0112 322.433 37.3146 322.036 37.3146 321.545C37.3146 321.055 37.0112 320.657 36.6369 320.657C36.2626 320.657 35.9592 321.055 35.9592 321.545C35.9592 322.036 36.2626 322.433 36.6369 322.433Z" fill="#3F3D56"/>
<path d="M36.6369 321.344C37.0112 321.344 37.3146 320.946 37.3146 320.455C37.3146 319.965 37.0112 319.567 36.6369 319.567C36.2626 319.567 35.9592 319.965 35.9592 320.455C35.9592 320.946 36.2626 321.344 36.6369 321.344Z" fill="#3F3D56"/>
<path d="M39.1662 313.033C39.2602 312.916 39.3448 312.793 39.4191 312.663L37.6438 312.365H39.5528C39.7366 311.962 39.8369 311.526 39.8476 311.083C39.8582 310.639 39.779 310.199 39.6148 309.787L37.0378 311.131L39.4239 309.374C39.2004 308.989 38.9007 308.654 38.5434 308.391C38.186 308.127 37.7786 307.94 37.3464 307.841C36.9143 307.743 36.4666 307.734 36.031 307.817C35.5955 307.899 35.1815 308.071 34.8146 308.321C34.4478 308.571 34.1359 308.894 33.8983 309.271C33.6608 309.647 33.5026 310.069 33.4336 310.509C33.3647 310.949 33.3863 311.399 33.4973 311.831C33.6083 312.263 33.8063 312.667 34.0789 313.018C33.9349 313.202 33.8117 313.402 33.7115 313.614L36.0165 314.819L33.5588 313.993C33.3856 314.506 33.3425 315.054 33.4334 315.588C33.5242 316.123 33.7461 316.625 34.0789 317.051C33.7037 317.531 33.4703 318.108 33.4055 318.716C33.3406 319.323 33.4469 319.936 33.7123 320.486C33.9776 321.035 34.3912 321.498 34.9059 321.822C35.4205 322.146 36.0154 322.318 36.6226 322.318C37.2297 322.318 37.8246 322.146 38.3393 321.822C38.8539 321.498 39.2675 321.035 39.5329 320.486C39.7982 319.936 39.9045 319.323 39.8397 318.716C39.7748 318.108 39.5415 317.531 39.1662 317.051C39.6148 316.477 39.8586 315.768 39.8586 315.037C39.8586 314.307 39.6148 313.597 39.1662 313.023V313.033Z" fill="#12DA97"/>
<path opacity="0.1" d="M33.406 315.025C33.4042 315.757 33.6481 316.467 34.098 317.042C33.7227 317.522 33.4894 318.099 33.4245 318.706C33.3597 319.313 33.466 319.927 33.7313 320.476C33.9967 321.025 34.4103 321.489 34.9249 321.813C35.4396 322.137 36.0345 322.309 36.6416 322.309C37.2488 322.309 37.8437 322.137 38.3583 321.813C38.873 321.489 39.2866 321.025 39.5519 320.476C39.8173 319.927 39.9236 319.313 39.8587 318.706C39.7939 318.099 39.5605 317.522 39.1853 317.042C39.61 316.485 33.406 314.66 33.406 315.025Z" fill="black"/>
<path d="M133.114 146.177H110.856C110.519 146.178 110.193 146.295 109.932 146.509C109.671 146.724 109.492 147.022 109.424 147.353L103.401 177.245C103.392 177.327 103.392 177.409 103.401 177.49L102.829 177.553L102.318 177.606C102.287 177.6 102.257 177.592 102.227 177.582C102.149 177.526 102.083 177.455 102.034 177.372C101.984 177.289 101.953 177.197 101.941 177.101C101.649 176.037 101.437 174.952 101.306 173.856C101.232 172.654 101.232 171.448 101.306 170.245C101.335 169.285 101.306 168.349 101.306 167.403C101.465 166.339 101.559 165.266 101.588 164.191C101.645 163.044 101.532 161.896 101.254 160.782C101.078 160.178 100.855 159.589 100.586 159.02C100.376 157.407 100.147 155.789 99.9128 154.181C99.7362 152.985 99.5597 151.78 99.3258 150.599C99.3783 150.402 99.4213 150.205 99.4547 150.004C99.5835 149.026 99.4571 148.032 99.0881 147.118C98.7191 146.205 98.1201 145.404 97.3501 144.794C96.8726 144.404 96.3443 144.081 95.78 143.834C95.3119 143.641 94.834 143.473 94.3483 143.33L86.6697 140.929C85.9586 139.887 85.238 138.836 84.5985 137.761C83.9753 136.792 83.431 135.774 82.9712 134.717C85.4639 132.927 87.1815 130.246 87.7716 127.223C88.3617 124.2 87.7796 121.065 86.1447 118.46C86.0159 118.258 85.8823 118.056 85.7439 117.864C85.7997 116.936 85.6915 116.004 85.4241 115.113C85.3649 114.783 85.2672 114.461 85.133 114.153C84.9257 113.737 84.6606 113.352 84.3456 113.01C84.2836 112.938 84.212 112.871 84.1452 112.799C83.5164 112.104 82.8121 111.483 82.0453 110.946C79.4969 109.088 76.08 106.831 72.9541 106.073C71.4094 105.719 69.8064 105.711 68.2582 106.049L68.0196 105.981L67.5662 105.89C67.6807 105.938 67.7905 106.001 67.905 106.053C66.2655 105.685 64.5621 105.716 62.9371 106.145C60.9136 106.75 60.2073 108.363 59.3531 110.125C57.9663 112.96 55.863 115.379 53.2541 117.139C51.5742 118.272 49.5842 119.252 48.7777 121.11C48.0237 122.843 48.5343 124.826 48.7109 126.713C48.9252 129.273 48.5011 131.846 47.4769 134.2C46.4527 136.553 44.8609 138.612 42.8457 140.19C40.5502 141.966 37.4864 143.455 36.9949 146.316C36.6465 148.357 37.7919 150.306 38.6556 152.188C40.4834 156.154 41.1086 160.998 38.9611 164.806C38.355 165.886 37.5294 166.875 37.2049 168.07C36.6322 170.197 37.8491 172.512 39.6721 173.75C41.4952 174.989 43.7811 175.32 45.9859 175.311C46.3629 175.311 46.7447 175.311 47.1312 175.258C46.9403 177.116 46.7017 178.974 46.4011 180.818C45.9572 183.54 45.3893 186.272 45.5612 189.023C45.6518 190.511 45.9907 192.052 46.9499 193.2C48.4579 195.01 51.0827 195.38 53.4354 195.288C57.1578 195.144 60.8182 194.17 64.5215 193.954C64.4521 194.104 64.4163 194.268 64.4165 194.434C64.4165 195.082 64.8126 195.797 64.6312 196.441C64.5545 196.666 64.4416 196.876 64.2972 197.065C63.3427 198.476 62.2117 200.051 62.541 201.727C62.7032 202.543 63.2091 203.359 62.9753 204.161C62.8274 204.535 62.6212 204.884 62.3644 205.193C61.0568 207.152 61.3288 209.73 61.6581 212.069L62.0972 212.193C61.9731 212.462 61.849 212.736 61.7345 213.01C61.1995 214.223 60.8905 215.525 60.823 216.85C60.8595 218.339 61.1103 219.813 61.5674 221.229C62.2165 223.63 62.8894 226.03 63.7436 228.349C64.469 230.342 65.3232 232.277 66.1679 234.216C66.4352 234.812 66.6976 235.412 66.9601 236.012C68.5891 239.725 70.2212 243.441 71.8565 247.16C72.0619 247.587 72.2219 248.035 72.3337 248.495C72.4196 248.889 72.4387 249.287 72.5008 249.686C72.7585 251.232 73.7606 252.533 74.4956 253.92C76.9724 258.602 76.3568 264.248 75.6839 269.505C76.0517 269.875 76.4637 270.197 76.9104 270.465C76.8388 270.993 76.7672 271.526 76.6574 272.035C76.0036 275.036 75.2257 278.013 74.7724 281.062C74.5442 282.544 74.4325 284.041 74.4383 285.541C74.4383 286.981 74.9489 288.446 74.9489 289.862C75.2973 291.303 75.827 292.676 76.1993 294.102C76.352 296.315 76.6097 298.528 76.939 300.737C77.0472 302.741 77.1585 304.746 77.2731 306.753C77.3733 308.529 77.4544 310.397 76.6622 311.991C76.6622 312.044 76.6049 312.096 76.5763 312.149C75.8841 312.102 75.1913 312.232 74.5628 312.528C73.9343 312.823 73.3907 313.275 72.9828 313.839C72.1478 315.061 71.6669 316.492 71.594 317.973C71.4929 318.598 71.5639 319.239 71.7992 319.826C72.0283 320.307 72.4292 320.628 72.6917 321.07C72.949 321.583 73.1108 322.14 73.1689 322.712C73.7034 326.034 74.2426 329.366 74.529 332.722C74.6149 333.745 74.696 334.825 75.2926 335.661C75.8891 336.496 77.2015 336.904 77.9507 336.198C77.1942 332.353 76.8201 328.442 76.834 324.522C77.0841 324.486 77.338 324.486 77.588 324.522C77.736 325.199 77.9412 325.871 78.1321 326.538C78.2597 327.029 78.4191 327.51 78.6093 327.979C78.5329 328.637 78.6093 329.626 78.5807 330.106C78.5425 332.228 78.5425 334.348 78.5807 336.467C78.6093 337.677 78.6522 338.887 78.7095 340.097C78.7041 340.231 78.7303 340.364 78.7859 340.486C78.8039 340.509 78.8272 340.527 78.8538 340.539C78.8805 340.551 78.9096 340.555 78.9386 340.553C79.3395 340.553 79.7451 340.553 80.146 340.553C80.1893 340.074 80.2069 339.593 80.1985 339.113C80.1985 338.008 80.1985 336.907 80.1985 335.81C80.1985 334.868 80.1985 333.927 80.1985 332.986C80.48 334.672 80.8809 336.347 81.2866 338.004L82.1456 341.547L82.2315 341.902L82.9616 344.903C82.9844 345.011 83.0196 345.116 83.0666 345.215C83.1594 345.36 83.2813 345.485 83.4245 345.58C84.9347 346.685 86.7065 347.371 88.563 347.572C90.4195 347.773 92.2959 347.48 94.0047 346.723C94.1364 346.669 94.2576 346.593 94.3627 346.497C94.554 346.24 94.641 345.919 94.606 345.599C94.5607 344.642 94.7474 343.688 95.1501 342.819C95.3701 342.499 95.5496 342.152 95.6846 341.787C95.7666 341.195 95.6526 340.593 95.3601 340.073L94.5726 338.225C94.9454 338.21 95.3168 338.172 95.6846 338.109C96.2429 337.629 95.8373 336.635 96.3002 336.069C96.4928 335.893 96.6986 335.732 96.9158 335.589C97.498 335.075 97.4408 334.148 97.1783 333.414C96.3288 331.047 94.0572 329.539 91.9288 328.204L91.652 328.032C89.9149 319.87 86.8511 311.828 87.6671 303.546C87.8437 301.779 88.1968 300.031 88.4832 298.264C89.9149 289.574 89.8242 280.658 91.4754 272.011C92.3279 271.963 93.1577 271.716 93.8997 271.291C95.298 270.417 95.9805 268.727 96.1666 267.09C96.3527 265.453 96.1284 263.801 96.1666 262.15C96.2095 259.783 96.7727 257.459 97.3358 255.15C97.9944 252.456 96.8586 249.599 97.5458 246.916C97.8068 246.09 98.0141 245.248 98.1662 244.395C98.3093 243.19 98.0707 241.917 98.4955 240.775C98.6864 240.251 99.0156 239.786 99.2352 239.272C100.19 237.102 99.1397 234.471 100.099 232.291C100.409 231.786 100.639 231.235 100.781 230.659C100.814 230.21 100.758 229.76 100.614 229.334C100.371 228.335 100.137 227.327 99.9796 226.314C99.9088 225.965 99.8784 225.609 99.889 225.253C99.9357 224.875 100.02 224.504 100.142 224.143C100.867 221.618 100.958 218.953 101.039 216.318C101.082 214.92 101.12 213.437 100.533 212.179C100.358 211.798 100.134 211.443 99.8651 211.123L99.9367 211.084C99.5692 209.581 99.2781 207.834 99.8126 206.379C100.037 205.76 100.423 205.164 100.352 204.507C100.28 203.849 99.8317 203.398 99.6503 202.812C99.3401 201.852 99.8126 200.815 100.089 199.825C100.567 198.135 100.457 196.34 100.347 194.583C100.352 194.205 100.267 193.831 100.099 193.493C99.9749 193.286 99.7887 193.128 99.6694 192.917C99.55 192.66 99.4909 192.38 99.4967 192.096C99.5025 191.813 99.5731 191.535 99.7029 191.284C99.9677 190.788 100.184 190.267 100.347 189.729C100.373 189.562 100.373 189.391 100.347 189.224C100.7 189.071 101.015 188.84 101.354 188.658C102.786 187.89 104.48 188.005 106.093 187.962C107.706 187.919 109.5 187.597 110.464 186.305C110.559 186.143 110.69 186.005 110.846 185.902C110.897 185.876 110.952 185.856 111.008 185.844C111.595 185.926 111.963 185.921 111.882 185.768C112.149 185.648 112.273 185.355 112.431 185.11C112.471 185.046 112.515 184.985 112.564 184.927C113.163 184.568 113.788 184.257 114.435 183.996C114.319 183.982 114.202 183.982 114.087 183.996C115.081 183.672 116.125 183.525 117.169 183.564C118.167 183.564 119.885 183.703 120.663 182.925C122.094 182.008 122.519 180.169 123.183 178.604C123.403 178.097 123.65 177.602 123.922 177.121L127.63 176.756C127.942 176.724 128.235 176.594 128.468 176.383C128.7 176.173 128.86 175.893 128.924 175.584L134.488 147.934C134.53 147.726 134.526 147.511 134.477 147.304C134.428 147.097 134.335 146.904 134.204 146.737C134.073 146.569 133.908 146.433 133.72 146.336C133.532 146.24 133.325 146.185 133.114 146.177ZM62.8894 184.106C62.0652 184.465 61.1768 184.65 60.2789 184.65C59.381 184.65 58.4926 184.465 57.6685 184.106C57.4203 183.996 57.1483 183.689 57.3487 183.506C57.5492 183.324 57.7114 183.477 57.8737 183.401C58.1839 183.247 57.9596 182.786 57.7878 182.488C57.3105 181.624 57.6398 180.53 58.1123 179.656C58.5847 178.782 59.1908 177.918 59.2099 176.924C59.1809 176.604 59.1809 176.283 59.2099 175.964C59.3612 175.51 59.6014 175.093 59.9162 174.734C60.0021 174.61 60.0737 174.475 60.1501 174.341C60.2789 174.542 60.4078 174.739 60.5414 174.936C60.9709 175.599 61.3988 176.266 61.8251 176.938C62.1657 177.391 62.3813 177.926 62.4503 178.489C62.4025 178.822 62.4203 179.161 62.5028 179.488C62.6937 179.91 63.2855 180.261 63.0659 180.669C62.9575 180.888 62.9011 181.13 62.9011 181.375C62.9011 181.619 62.9575 181.861 63.0659 182.08C63.2902 182.469 63.6243 182.791 63.8486 183.175C63.9123 183.29 63.9666 183.411 64.0108 183.535C63.6482 183.727 63.2711 183.938 62.8894 184.106ZM109.181 178.926C108.899 178.993 108.618 179.06 108.336 179.137C108.298 178.964 108.283 178.868 108.283 178.868L106.794 179.315C106.228 179.34 105.663 179.223 105.153 178.974L111.3 178.369C110.598 178.571 109.892 178.758 109.181 178.926Z" fill="url(#paint2_linear_364:244)"/>
<path d="M63.9488 111.383C62.5808 114.2 60.5025 116.607 57.9214 118.364C56.2558 119.492 54.2896 120.462 53.4927 122.31C52.7482 124.034 53.2541 126.012 53.4259 127.884C53.6369 130.415 53.2212 132.958 52.216 135.288C51.2108 137.617 49.6474 139.659 47.6657 141.232C45.3989 143.003 42.3684 144.482 41.8817 147.329C41.5381 149.355 42.6739 151.3 43.5281 153.167C45.332 157.114 45.9524 161.934 43.8288 165.718C43.2275 166.793 42.3971 167.778 42.0917 168.968C41.5237 171.086 42.7264 173.385 44.5303 174.614C46.3342 175.844 48.5963 176.18 50.7725 176.17C52.3521 176.17 54.0653 175.93 55.1916 174.811C55.9456 174.062 56.3179 173.02 56.671 172.017L59.4151 164.196C59.8923 162.784 60.4364 161.315 61.4767 160.259C63.6863 157.993 67.2846 158.233 70.4391 158.271C75.0821 158.327 79.7012 157.595 84.1022 156.106C86.6792 155.227 89.4758 153.739 90.0771 151.074C90.6784 148.41 88.8936 145.985 87.333 143.824C86.1654 142.224 85.0614 140.568 84.021 138.855C83.0045 137.204 82.0358 135.461 81.7542 133.54C81.277 130.347 82.7803 127.246 83.9304 124.236C85.0805 121.225 85.887 117.663 84.2119 114.912C83.4884 113.84 82.5664 112.919 81.4965 112.199C78.9767 110.351 75.5979 108.108 72.5103 107.355C70.8549 106.964 69.1295 106.987 67.485 107.422C65.4855 108.046 64.7839 109.65 63.9488 111.383Z" fill="#AC2A0E"/>
<path d="M97.8321 148.702C98.4513 150.822 98.8903 152.99 99.1445 155.184C99.9081 160.465 100.676 165.814 100.533 171.167C100.464 172.362 100.464 173.559 100.533 174.754C100.666 175.845 100.878 176.925 101.168 177.985C101.178 178.08 101.209 178.173 101.257 178.255C101.306 178.338 101.371 178.41 101.45 178.465C101.631 178.556 101.846 178.465 102.046 178.441C102.728 178.359 103.234 179.022 103.759 179.468C104.275 179.888 104.906 180.139 105.568 180.189C106.229 180.239 106.89 180.085 107.463 179.747C107.286 180.534 107.342 181.355 107.622 182.111C107.903 182.866 108.396 183.523 109.042 184.001C109.702 184.464 110.453 184.778 111.244 184.923C112.036 185.068 112.849 185.04 113.628 184.841C112.836 184.716 112.077 185.273 111.643 185.95C111.49 186.19 111.366 186.483 111.104 186.603C110.841 186.723 110.388 186.569 110.078 186.733C109.924 186.838 109.796 186.975 109.701 187.136C108.746 188.423 106.976 188.739 105.382 188.783C103.788 188.826 102.099 188.715 100.695 189.479C100.347 189.666 100.023 189.906 99.6599 190.06C98.5527 190.54 97.2308 190.06 96.3718 189.239C95.5526 188.354 94.9711 187.273 94.6824 186.099C93.2507 181.451 93.537 176.472 93.8282 171.618C94.2911 163.903 95.2646 156 97.8321 148.702Z" fill="#454B69"/>
<path opacity="0.1" d="M97.8321 148.702C98.4513 150.822 98.8903 152.99 99.1445 155.184C99.9081 160.465 100.676 165.814 100.533 171.167C100.464 172.362 100.464 173.559 100.533 174.754C100.666 175.845 100.878 176.925 101.168 177.985C101.178 178.08 101.209 178.173 101.257 178.255C101.306 178.338 101.371 178.41 101.45 178.465C101.631 178.556 101.846 178.465 102.046 178.441C102.728 178.359 103.234 179.022 103.759 179.468C104.275 179.888 104.906 180.139 105.568 180.189C106.229 180.239 106.89 180.085 107.463 179.747C107.286 180.534 107.342 181.355 107.622 182.111C107.903 182.866 108.396 183.523 109.042 184.001C109.702 184.464 110.453 184.778 111.244 184.923C112.036 185.068 112.849 185.04 113.628 184.841C112.836 184.716 112.077 185.273 111.643 185.95C111.49 186.19 111.366 186.483 111.104 186.603C110.841 186.723 110.388 186.569 110.078 186.733C109.924 186.838 109.796 186.975 109.701 187.136C108.746 188.423 106.976 188.739 105.382 188.783C103.788 188.826 102.099 188.715 100.695 189.479C100.347 189.666 100.023 189.906 99.6599 190.06C98.5527 190.54 97.2308 190.06 96.3718 189.239C95.5526 188.354 94.9711 187.273 94.6824 186.099C93.2507 181.451 93.537 176.472 93.8282 171.618C94.2911 163.903 95.2646 156 97.8321 148.702Z" fill="black"/>
<path d="M74.5241 290.112C74.925 291.787 75.5836 293.396 75.9558 295.076C76.227 296.524 76.3866 297.992 76.433 299.465L76.8434 306.916C76.9437 308.683 77.0248 310.541 76.2421 312.125C75.7029 313.225 74.7675 314.147 74.5002 315.342C74.0803 317.215 75.4118 318.986 76.6621 320.441L82.7993 327.595C84.7082 329.837 86.8223 332.194 89.6714 332.958C90.0947 333.103 90.5511 333.119 90.9838 333.006C91.776 332.742 92.1625 331.777 92.048 330.941C91.8683 330.116 91.4934 329.347 90.9551 328.699C89.3469 326.428 87.6145 324.195 86.5837 321.612C85.257 318.328 85.1186 314.694 85.1997 311.151C85.5243 296.699 89.1369 282.416 88.7265 267.94C85.5911 267.7 82.3316 267.177 79.1819 267.205C76.3805 267.234 76.7146 270.086 76.2278 272.367C75.5788 275.353 74.7961 278.315 74.3619 281.345C74.1354 282.821 74.0253 284.312 74.0326 285.805C74.0326 287.26 74.5241 288.715 74.5241 290.112Z" fill="#FBBEBE"/>
<path opacity="0.05" d="M74.5241 290.112C74.925 291.787 75.5836 293.396 75.9558 295.076C76.227 296.524 76.3866 297.992 76.433 299.465L76.8434 306.916C76.9437 308.683 77.0248 310.541 76.2421 312.125C75.7029 313.225 74.7675 314.147 74.5002 315.342C74.0803 317.215 75.4118 318.986 76.6621 320.441L82.7993 327.595C84.7082 329.837 86.8223 332.194 89.6714 332.958C90.0947 333.103 90.5511 333.119 90.9838 333.006C91.776 332.742 92.1625 331.777 92.048 330.941C91.8683 330.116 91.4934 329.347 90.9551 328.699C89.3469 326.428 87.6145 324.195 86.5837 321.612C85.257 318.328 85.1186 314.694 85.1997 311.151C85.5243 296.699 89.1369 282.416 88.7265 267.94C85.5911 267.7 82.3316 267.177 79.1819 267.205C76.3805 267.234 76.7146 270.086 76.2278 272.367C75.5788 275.353 74.7961 278.315 74.3619 281.345C74.1354 282.821 74.0253 284.312 74.0326 285.805C74.0326 287.26 74.5241 288.715 74.5241 290.112Z" fill="black"/>
<path d="M76.3806 312.313C74.9489 312.015 73.4599 312.793 72.5628 313.964C71.735 315.179 71.2591 316.602 71.1883 318.074C71.0834 318.696 71.1546 319.335 71.3935 319.918C71.6178 320.374 72.0139 320.719 72.2716 321.156C72.5292 321.666 72.691 322.22 72.7489 322.789C73.2834 326.097 73.8179 329.41 74.0947 332.746C74.1806 333.764 74.2617 334.84 74.8535 335.67C75.4452 336.501 76.7624 336.904 77.483 336.208C76.7363 332.399 76.3638 328.525 76.371 324.642C78.0461 324.412 79.5064 325.737 80.5993 327.043C81.7181 328.366 82.7435 329.767 83.6679 331.234C84.4454 332.624 85.3463 333.94 86.3595 335.166C87.458 336.338 88.824 337.223 90.3391 337.744C91.8542 338.266 93.4727 338.407 95.0546 338.157C95.6082 337.677 95.2025 336.688 95.6607 336.126C95.8516 335.951 96.0559 335.79 96.2715 335.646C96.849 335.137 96.7869 334.206 96.5292 333.486C95.6941 331.128 93.4463 329.645 91.3417 328.3C87.5239 325.9 83.6583 323.499 79.8166 321.176C78.3517 320.263 77.2366 318.879 76.6526 317.248C76.5142 316.83 75.9129 312.154 76.3806 312.313Z" fill="#3F3D56"/>
<path opacity="0.05" d="M76.3806 312.313C74.9489 312.015 73.4599 312.793 72.5628 313.964C71.735 315.179 71.2591 316.602 71.1883 318.074C71.0834 318.696 71.1546 319.335 71.3935 319.918C71.6178 320.374 72.0139 320.719 72.2716 321.156C72.5292 321.666 72.691 322.22 72.7489 322.789C73.2834 326.097 73.8179 329.41 74.0947 332.746C74.1806 333.764 74.2617 334.84 74.8535 335.67C75.4452 336.501 76.7624 336.904 77.483 336.208C76.7363 332.399 76.3638 328.525 76.371 324.642C78.0461 324.412 79.5064 325.737 80.5993 327.043C81.7181 328.366 82.7435 329.767 83.6679 331.234C84.4454 332.624 85.3463 333.94 86.3595 335.166C87.458 336.338 88.824 337.223 90.3391 337.744C91.8542 338.266 93.4727 338.407 95.0546 338.157C95.6082 337.677 95.2025 336.688 95.6607 336.126C95.8516 335.951 96.0559 335.79 96.2715 335.646C96.849 335.137 96.7869 334.206 96.5292 333.486C95.6941 331.128 93.4463 329.645 91.3417 328.3C87.5239 325.9 83.6583 323.499 79.8166 321.176C78.3517 320.263 77.2366 318.879 76.6526 317.248C76.5142 316.83 75.9129 312.154 76.3806 312.313Z" fill="black"/>
<path d="M75.7601 285.916C74.9918 295.571 77.1441 305.183 79.0578 314.675C79.2377 315.433 79.3353 316.209 79.3489 316.989C79.2687 317.961 79.1091 318.924 78.8717 319.87C78.1463 323.787 79.0721 327.801 79.9932 331.676C80.6327 334.36 81.5346 337.389 84.021 338.561C85.7724 339.391 87.8388 339.041 89.7478 338.652C90.3751 338.585 90.9715 338.344 91.4706 337.956C92.1578 337.307 92.1816 336.237 92.1244 335.296C91.4658 324.637 86.1017 314.415 87.1469 303.786C87.3187 302.028 87.667 300.29 87.9534 298.543C89.4328 289.507 89.2419 280.207 91.1508 271.262C91.2456 270.949 91.2456 270.615 91.1508 270.302C90.9893 269.995 90.7331 269.749 90.4206 269.601C88.6835 268.554 86.8271 267.628 84.8227 267.345C83.2574 267.124 81.2912 267.297 79.9741 268.271C78.6569 269.246 78.5042 271.498 78.0986 273.106C76.9614 277.302 76.1792 281.587 75.7601 285.916Z" fill="#FBBEBE"/>
<path d="M78.2657 340.135C78.2579 340.267 78.2825 340.399 78.3373 340.519C78.355 340.543 78.3782 340.562 78.4048 340.574C78.4314 340.587 78.4607 340.593 78.49 340.591C78.8909 340.591 79.287 340.591 79.6878 340.591C79.7356 340.111 79.7356 339.631 79.7403 339.151V335.867C79.7403 333.265 79.7403 330.653 79.6258 328.065C79.6274 327.969 79.6129 327.873 79.5828 327.782C79.5553 327.725 79.5076 327.681 79.4492 327.657C79.1677 327.523 78.4948 327.105 78.2562 327.585C78.0175 328.065 78.1225 329.578 78.1082 330.207C78.07 332.316 78.07 334.425 78.1082 336.534C78.1623 337.735 78.2148 338.935 78.2657 340.135Z" fill="#3F3D56"/>
<path d="M99.2208 225.901C99.2107 226.255 99.2411 226.609 99.3115 226.957C99.4833 227.965 99.698 228.964 99.9414 229.958C100.08 230.383 100.135 230.831 100.104 231.278C99.9615 231.85 99.7346 232.397 99.4308 232.901C98.4763 235.047 99.5024 237.702 98.5765 239.843C98.357 240.357 98.0325 240.804 97.8416 241.341C97.4264 242.479 97.6603 243.742 97.5219 244.942C97.3714 245.79 97.1657 246.627 96.9062 247.448C96.2333 250.118 97.3453 252.96 96.6963 255.639C96.1427 257.934 95.5796 260.248 95.5414 262.606C95.508 264.243 95.7323 265.885 95.5414 267.517C95.3505 269.15 94.6776 270.825 93.2984 271.694C92.2103 272.381 90.8597 272.458 89.5712 272.482C87.0944 272.525 84.6033 272.453 82.1264 272.261C79.6496 272.069 76.9914 271.661 75.2496 269.889C75.9129 264.661 76.519 259.048 74.0708 254.386C73.3454 253.008 72.3528 251.712 72.0998 250.175C72.033 249.782 72.0139 249.383 71.9328 248.994C71.8197 248.536 71.6598 248.09 71.4556 247.664C69.8426 243.961 68.2279 240.263 66.6117 236.569C66.354 235.974 66.0963 235.378 65.8291 234.783C64.9939 232.862 64.154 230.942 63.4429 228.954C62.5982 226.63 61.9301 224.249 61.2906 221.868C60.838 220.458 60.5904 218.989 60.5557 217.508C60.6252 216.198 60.9308 214.911 61.4576 213.71C61.744 213.009 62.078 212.323 62.4121 211.651C72.0091 209.373 81.8861 208.522 91.7283 209.125C93.3021 209.154 94.8633 209.415 96.3622 209.898C97.3779 210.26 98.2927 210.86 99.0299 211.651C99.3694 212.018 99.6481 212.438 99.8555 212.894C100.433 214.162 100.395 215.621 100.357 217.014C100.271 219.63 100.185 222.295 99.469 224.796C99.3487 225.155 99.2655 225.525 99.2208 225.901Z" fill="#3F3D56"/>
<path d="M92.4919 334.777C91.0365 335.885 89.3285 336.608 87.5239 336.88C85.93 337.115 84.1833 336.947 82.9187 335.92C81.487 334.772 80.9763 332.823 80.5659 331.018L80.0171 328.617C79.8167 327.753 79.621 326.889 79.4635 326.015C79.0536 323.708 78.9333 321.357 79.1056 319.02C77.798 319.534 77.0153 321.094 76.9294 322.501C76.8435 323.907 77.2778 325.285 77.6739 326.639C77.8301 327.293 78.0691 327.924 78.385 328.517C78.6188 328.91 78.9243 329.261 79.1247 329.674C79.3747 330.285 79.5183 330.934 79.5494 331.594C79.8462 333.763 80.2749 335.912 80.8332 338.028L81.6826 341.552L81.7685 341.907L82.4892 344.893C82.5112 345 82.5464 345.103 82.5942 345.201C82.6839 345.347 82.8044 345.471 82.9473 345.566C84.4373 346.664 86.1891 347.348 88.0258 347.548C89.8626 347.748 91.7192 347.457 93.4082 346.703C93.5393 346.649 93.6603 346.573 93.7661 346.478C93.9501 346.221 94.0333 345.905 93.9999 345.59C93.9588 344.636 94.1453 343.686 94.544 342.819C94.76 342.5 94.9363 342.155 95.0689 341.792C95.1475 341.204 95.0353 340.606 94.7492 340.087L92.9834 335.93C92.8793 335.522 92.7135 335.134 92.4919 334.777Z" fill="#3F3D56"/>
<path d="M88.3495 161.795C88.283 162.71 88.1035 163.614 87.815 164.484C87.6004 165.116 87.2233 165.679 86.7221 166.116C85.9013 165.002 84.4362 164.618 83.3242 163.797C82.4096 163.016 81.6137 162.103 80.9619 161.089C79.5303 159.169 77.8981 157.465 76.371 155.65C76.1372 155.371 75.8938 155.098 75.6886 154.819C74.9078 153.862 74.2011 152.846 73.5744 151.78C72.3002 149.571 71.4269 147.032 69.5084 145.361C68.4633 144.449 67.1509 143.848 66.2251 142.816C66.7897 141.844 67.1578 140.768 67.3084 139.652C67.5279 138.582 67.7427 137.506 67.8572 136.416C67.8906 136.128 67.9097 135.84 67.9193 135.552C67.9193 135.427 67.9193 135.307 67.9193 135.182C67.9193 134.294 67.3514 132.782 68.2533 132.273C69.0789 131.793 70.4343 131.793 71.4078 131.821H71.5844C73.8447 131.847 76.0486 132.534 77.9268 133.8C78.3542 134.063 78.727 134.407 79.0244 134.813C79.4598 135.612 79.6271 136.531 79.5016 137.434C79.5016 137.645 79.5016 137.857 79.4682 138.063V138.37C79.4348 139.398 79.535 140.497 80.2509 141.213C80.9667 141.928 82.2361 142.019 83.2813 142.346C83.4531 142.403 83.6153 142.461 83.7824 142.528C84.9269 143.048 85.9039 143.879 86.6028 144.929C87.3885 146.135 87.9436 147.478 88.2397 148.89C88.5311 150.152 88.7147 151.437 88.7885 152.731C88.8914 155.759 88.7446 158.791 88.3495 161.795Z" fill="#FBBEBE"/>
<path opacity="0.1" d="M79.4826 138.039V138.346C78.2083 138.826 75.1016 137.501 73.6651 137.501C70.8017 137.501 69.9332 138.063 67.8715 136.392C67.9145 135.984 67.9431 135.571 67.9527 135.158C67.9527 134.27 67.3848 132.758 68.2867 132.249C69.1887 131.74 70.6252 131.769 71.5987 131.797C73.859 131.823 76.063 132.51 77.9411 133.775C78.3686 134.039 78.7413 134.383 79.0387 134.789C79.6448 135.71 79.5494 136.925 79.4826 138.039Z" fill="black"/>
<path d="M87.3808 126.079C87.3812 127.862 86.9889 129.623 86.232 131.235C85.4751 132.847 84.3725 134.271 83.0035 135.403C81.6344 136.535 80.0329 137.348 78.3143 137.783C76.5956 138.218 74.8025 138.264 73.0639 137.919C70.3391 137.376 67.8857 135.899 66.1218 133.74C64.358 131.581 63.3927 128.874 63.3904 126.079C63.3586 124.474 63.6455 122.878 64.2342 121.385C64.823 119.892 65.7018 118.533 66.8193 117.386C67.9367 116.239 69.2703 115.328 70.7421 114.706C72.2138 114.084 73.7941 113.763 75.3904 113.763C76.9867 113.763 78.567 114.084 80.0387 114.706C81.5104 115.328 82.8441 116.239 83.9615 117.386C85.079 118.533 85.9578 119.892 86.5465 121.385C87.1353 122.878 87.4222 124.474 87.3903 126.079H87.3808Z" fill="#FBBEBE"/>
<path d="M67.1939 140.344C66.8172 140.026 66.3557 139.827 65.8672 139.772C65.5155 139.807 65.1807 139.94 64.9012 140.158C64.6218 140.375 64.4091 140.668 64.2876 141.001C63.9964 141.649 63.9058 142.365 63.6528 143.032C63.3096 143.93 62.6868 144.691 61.8775 145.202C61.3096 145.558 60.6367 145.807 60.2502 146.355C59.6393 147.224 60.0116 148.438 60.527 149.37C62.4359 152.841 65.9197 155.131 69.2555 157.249L73.0161 159.649C74.5263 160.656 76.0909 161.577 77.7025 162.41C80.3129 163.706 83.1381 164.537 85.7342 165.862C86.9273 166.467 88.1204 167.192 89.4232 167.398C89.7013 166.504 89.8759 165.581 89.9434 164.647C90.5877 158.886 91.2224 152.995 89.9434 147.339C89.7746 146.243 89.3164 145.214 88.6167 144.357C88.1244 143.884 87.5607 143.492 86.9464 143.195C85.4227 142.37 83.855 141.63 82.2505 140.977C81.4982 140.611 80.6713 140.427 79.8357 140.44C79.9081 141.07 80.0958 141.683 80.3893 142.245C82.4032 146.761 84.4203 151.279 86.4405 155.799C86.884 156.622 87.1353 157.537 87.1755 158.473C87.1325 159.803 86.221 161.099 86.6076 162.376C83.0873 157.226 79.0493 152.454 74.5575 148.136C74.3604 147.97 74.1982 147.766 74.0803 147.536C73.9717 147.173 73.9488 146.79 74.0135 146.417C74.0564 145.706 73.9085 144.756 73.3167 144.281C72.9063 143.949 72.3002 143.853 71.8469 143.565C70.2672 142.557 68.7449 141.419 67.1939 140.344Z" fill="#12DA97"/>
<path opacity="0.1" d="M99.2638 212.721C96.2312 214.256 92.928 215.174 89.5426 215.425C86.1671 215.667 82.7795 215.686 79.4015 215.482L71.7085 215.189C68.2152 215.05 64.7839 214.767 61.4529 213.71C61.7392 213.01 62.0733 212.323 62.4073 211.651C72.0044 209.373 81.8813 208.522 91.7236 209.125C93.2974 209.154 94.8586 209.415 96.3575 209.898C97.3731 210.26 98.2879 210.86 99.0252 211.651C99.1015 212.016 99.1874 212.376 99.2638 212.721Z" fill="black"/>
<path d="M98.7245 174.994C97.3978 179.512 98.3093 184.457 99.1349 189.09C99.3668 189.248 99.5439 189.475 99.6414 189.739C99.7389 190.004 99.7521 190.292 99.679 190.564C99.5141 191.098 99.3 191.616 99.0395 192.11C98.9102 192.359 98.8395 192.634 98.8328 192.914C98.8262 193.195 98.8839 193.473 99.0013 193.728C99.1206 193.939 99.3067 194.102 99.4308 194.309C99.5964 194.644 99.6799 195.015 99.6742 195.389C99.7792 197.137 99.8842 198.923 99.4165 200.608C99.1445 201.568 98.6816 202.605 98.987 203.575C99.1683 204.161 99.6169 204.655 99.679 205.265C99.741 205.875 99.3688 206.509 99.1445 207.123C98.6147 208.564 98.9011 210.306 99.2686 211.804C96.2359 213.339 92.9327 214.257 89.5474 214.507C86.172 214.752 82.7842 214.772 79.4063 214.565L71.7133 214.272C68.1914 214.138 64.7362 213.85 61.3813 212.774C61.0568 210.446 60.7848 207.882 62.0828 205.937C62.3334 205.625 62.5361 205.277 62.6841 204.905C62.9132 204.108 62.4121 203.297 62.2546 202.504C61.9253 200.838 63.0373 199.268 63.987 197.871C64.1332 197.684 64.2462 197.473 64.321 197.247C64.4976 196.604 64.111 195.898 64.1063 195.25C64.1023 195.063 64.145 194.878 64.2304 194.712C64.3687 194.438 64.636 194.232 64.7792 193.982C64.9315 193.632 64.978 193.245 64.9128 192.869C64.7346 190.452 64.4451 188.051 64.0442 185.667C64.0061 185.455 63.9679 185.235 63.9154 185.019C63.8473 184.683 63.7299 184.359 63.567 184.058C63.3427 183.669 63.0134 183.357 62.7939 182.968C62.6855 182.75 62.6291 182.509 62.6291 182.265C62.6291 182.021 62.6855 181.78 62.7939 181.562C63.0086 181.158 62.4217 180.808 62.2355 180.39C62.1556 180.065 62.1378 179.728 62.183 179.396C62.1151 178.835 61.9011 178.302 61.5626 177.85C61.1427 177.183 60.7227 176.52 60.2932 175.863C58.3843 172.883 56.3942 169.954 54.3231 167.077C53.34 165.699 52.333 164.325 51.3165 162.972C50.4909 161.877 49.6414 160.768 49.2263 159.457C49.1528 159.229 49.0954 158.997 49.0545 158.761C48.8239 157.502 49.003 156.202 49.5651 155.054C50.1213 154.102 50.7601 153.2 51.474 152.361C52.1497 151.331 52.8826 150.34 53.6693 149.394C54.0663 148.922 54.5536 148.536 55.1021 148.258C55.6506 147.98 56.2491 147.816 56.8619 147.776C57.573 147.776 58.4034 147.977 58.8949 147.464C59.0763 147.281 59.1717 147.036 59.3722 146.859C59.8923 146.379 60.7466 146.7 61.3718 147.056L73.3884 153.888L75.3355 155.002C75.6886 155.213 76.0513 155.424 76.4045 155.64C78.0716 156.619 79.6694 157.713 81.1863 158.915C83.4102 160.71 85.8775 162.362 87.815 164.465C88.0012 164.662 88.1777 164.858 88.3495 165.065C88.6995 162.607 89.0495 160.145 89.3994 157.681C89.5288 156.971 89.5752 156.25 89.5378 155.53C89.4471 154.822 89.2741 154.127 89.0224 153.46C88.9461 153.22 88.8649 152.98 88.7886 152.74C88.3543 151.434 87.92 150.133 87.4905 148.827C86.8558 146.907 86.1781 144.924 84.7465 143.512C84.3988 143.215 84.0793 142.885 83.792 142.528C83.6563 142.349 83.564 142.141 83.5226 141.92C83.4811 141.699 83.4917 141.472 83.5534 141.256L93.6754 144.434C94.1527 144.588 94.6299 144.737 95.1071 144.914C95.6673 145.16 96.1909 145.484 96.6629 145.874C97.4243 146.484 98.0157 147.282 98.3795 148.189C98.7434 149.097 98.8671 150.085 98.7388 151.055C98.6386 151.694 98.4191 152.298 98.2855 152.927C98.0516 154.065 97.6889 155.376 98.1805 156.432C98.672 157.489 99.1349 158.42 99.5788 159.414C99.9627 160.171 100.282 160.96 100.533 161.771C100.81 162.88 100.921 164.024 100.862 165.166C100.802 167.713 100.365 170.238 99.5644 172.656C99.2638 173.419 98.9631 174.197 98.7245 174.994Z" fill="#454B69"/>
<path d="M78.0699 180.717L102.07 178.446L106.265 177.97L102.409 179.344L78.0699 180.717Z" fill="#3F3D56"/>
<path d="M77.5308 181.888V180.069L102.972 178.806L104.213 179.877L77.5308 181.888Z" fill="#3F3D56"/>
<path d="M77.6119 178.427C78.1464 178.283 78.7191 178.311 79.2583 178.182C79.9599 178.014 80.5898 177.582 81.3057 177.49C81.747 177.455 82.1911 177.488 82.6228 177.586L85.9157 178.163C86.1686 178.211 86.4645 178.287 86.5552 178.532C86.5793 178.643 86.5734 178.757 86.5382 178.865C86.5029 178.972 86.4395 179.068 86.3548 179.142C85.763 179.771 84.8181 179.862 83.9686 179.915L81.6731 180.054C81.226 180.047 80.7838 180.149 80.3846 180.352C80.1923 180.463 80.0443 180.637 79.9659 180.846C79.8876 181.054 79.8837 181.284 79.9551 181.495C80.0781 181.704 80.2611 181.871 80.4801 181.975C81.3947 182.482 82.4463 182.682 83.4818 182.546C84.3185 182.386 85.1395 182.151 85.9348 181.845C87.9543 181.193 90.0856 180.966 92.1961 181.178C92.7449 181.23 93.3844 181.389 93.58 181.907C93.6319 182.09 93.639 182.282 93.6008 182.468C93.5625 182.653 93.4801 182.827 93.3605 182.973C92.5397 184.121 90.9075 184.159 89.5427 184.471C88.2378 184.771 87.0305 185.4 86.035 186.301C86.3404 186.929 86.0875 187.678 85.7821 188.303C85.4367 189.025 85.0245 189.713 84.5508 190.358C84.2959 190.758 83.938 191.081 83.5152 191.294C83.2372 191.391 82.9456 191.442 82.6514 191.447C79.7999 191.617 76.9384 191.456 74.1233 190.967C73.8195 190.946 73.531 190.824 73.3025 190.622C73.1574 190.427 73.0667 190.196 73.04 189.954C72.7489 188.514 72.4912 187.074 72.2717 185.6C72.0573 184.686 72.1444 183.727 72.5199 182.868C72.873 182.2 73.4266 181.984 73.9897 181.533C75.2114 180.558 75.9941 178.859 77.6119 178.427Z" fill="#FBBEBE"/>
<path d="M108.608 148.4L102.652 178.119C102.604 178.343 102.609 178.575 102.667 178.796C102.726 179.018 102.836 179.222 102.989 179.392C103.141 179.562 103.332 179.692 103.545 179.773C103.758 179.854 103.987 179.883 104.213 179.857L126.676 177.639C126.986 177.611 127.278 177.483 127.509 177.273C127.739 177.064 127.896 176.784 127.955 176.477L133.457 148.971C133.503 148.759 133.5 148.538 133.448 148.327C133.397 148.116 133.299 147.919 133.161 147.751C133.023 147.583 132.85 147.449 132.653 147.359C132.456 147.268 132.242 147.224 132.026 147.228H110.025C109.69 147.226 109.365 147.342 109.106 147.556C108.847 147.77 108.671 148.069 108.608 148.4Z" fill="#3F3D56"/>
<path d="M119.785 183.78C121.216 182.872 121.622 181.038 122.276 179.488C122.8 178.351 123.403 177.252 124.08 176.199C124.652 175.239 125.225 174.091 124.772 173.078C124.414 172.432 123.823 171.949 123.12 171.729C122.487 171.423 121.771 171.333 121.083 171.474C120.31 171.686 119.737 172.329 119.217 172.939L117.365 175.099C116.572 176.135 115.618 177.034 114.54 177.764C113.862 178.143 113.145 178.447 112.402 178.671C111.075 179.113 109.729 179.502 108.369 179.829C107.587 179.982 106.824 180.22 106.093 180.539C105.946 180.594 105.812 180.677 105.697 180.784C105.582 180.891 105.49 181.02 105.425 181.163C105.365 181.523 105.449 181.893 105.659 182.191C106.136 183.069 106.666 184.86 107.644 185.172C108.576 185.404 109.526 185.554 110.483 185.619C111.438 185.72 112.158 185.335 113.003 184.975C114.068 184.568 115.205 184.385 116.344 184.438C117.317 184.418 119.016 184.558 119.785 183.78Z" fill="#FBBEBE"/>
<path d="M107.486 179.752C107.486 179.752 108.331 185.47 113.628 184.841C113.628 184.841 110.808 185.969 111.104 186.603C111.4 187.237 104.566 185.369 104.566 185.369L104.213 182.388C104.213 182.388 103.988 180.741 104.213 180.698C104.437 180.654 107.486 179.752 107.486 179.752Z" fill="#454B69"/>
<path opacity="0.1" d="M107.486 179.752C107.486 179.752 108.331 185.47 113.628 184.841C113.628 184.841 110.808 185.969 111.104 186.603C111.4 187.237 104.566 185.369 104.566 185.369L104.213 182.388C104.213 182.388 103.988 180.741 104.213 180.698C104.437 180.654 107.486 179.752 107.486 179.752Z" fill="black"/>
<path opacity="0.1" d="M83.0045 155.856C83.5272 156.12 83.9568 156.539 84.2358 157.056C84.6809 157.767 85.0172 158.54 85.2332 159.351C85.4957 160.312 85.6197 161.44 86.3451 162.151" fill="black"/>
<path opacity="0.1" d="M60.7323 171.695C61.1205 173.086 60.9598 174.574 60.2837 175.848C58.3748 172.868 56.3847 169.94 54.3135 167.062C53.3304 165.684 52.3235 164.311 51.307 162.957C50.4814 161.862 49.6319 160.753 49.2167 159.443C49.1432 159.215 49.0858 158.982 49.0449 158.746C49.5539 157.984 50.3175 157.431 51.1972 157.186C52.5907 161.253 56.1222 164.167 58.6515 167.643C59.5962 168.848 60.3025 170.223 60.7323 171.695Z" fill="black"/>
<path opacity="0.1" d="M78.5234 192.523L70.1623 192.811C69.4513 192.835 68.5732 192.974 68.3489 193.656C68.2821 193.872 68.2916 194.107 68.2248 194.323C67.991 195.087 66.9744 195.178 66.1775 195.173C65.4855 195.173 64.7935 195.202 64.1063 195.255C64.1024 195.068 64.145 194.883 64.2304 194.717C64.3688 194.443 64.636 194.237 64.7792 193.987C64.9316 193.637 64.978 193.25 64.9128 192.873C64.7347 190.457 64.4451 188.056 64.0443 185.672C64.0061 185.46 63.9679 185.239 63.9154 185.023C64.5629 184.594 65.3208 184.364 66.0963 184.361C66.7836 184.438 67.4135 184.841 68.1007 184.807C69.2938 184.745 70.1194 183.405 71.3125 183.329C71.5673 183.347 71.8233 183.316 72.0665 183.237C72.4435 183.045 72.5055 182.541 72.7012 182.167C72.9875 181.61 73.7893 181.475 74.3954 181.619C74.3788 182.891 74.4602 184.163 74.6387 185.422C74.6985 185.974 74.8268 186.516 75.0205 187.035C75.2481 187.561 75.533 188.06 75.87 188.523C76.7672 189.868 77.6262 191.169 78.5234 192.523Z" fill="black"/>
<path d="M50.739 156.73C49.2549 157.104 48.2002 158.506 47.7659 159.985C47.3316 161.464 47.408 163.039 47.4509 164.58C47.5973 170.3 47.2091 176.021 46.2913 181.667C45.8522 184.375 45.2891 187.093 45.4561 189.829C45.5468 191.313 45.8856 192.845 46.8305 193.987C48.3243 195.783 50.9204 196.153 53.2493 196.061C57.4298 195.898 61.534 194.664 65.7193 194.693C66.5163 194.693 67.528 194.602 67.7666 193.838C67.8334 193.627 67.8191 193.392 67.8907 193.176C68.1102 192.494 68.9883 192.35 69.7041 192.326L78.0652 192.043C77.168 190.713 76.309 189.407 75.4118 188.077C75.0761 187.612 74.7898 187.113 74.5576 186.589C74.366 186.067 74.2378 185.523 74.1758 184.971C73.9986 183.713 73.9188 182.443 73.9372 181.173C73.3311 181.034 72.5055 181.173 72.2382 181.715C72.0426 182.095 71.9805 182.594 71.6083 182.786C71.3646 182.87 71.106 182.901 70.8495 182.877C69.6612 182.959 68.8356 184.318 67.6425 184.361C66.9553 184.394 66.3206 183.986 65.6381 183.914C64.5548 183.799 63.5861 184.519 62.5934 184.961C61.7793 185.32 60.9003 185.505 60.0116 185.505C59.1229 185.505 58.2439 185.32 57.4298 184.961C57.1864 184.855 56.9144 184.548 57.1148 184.366C57.3153 184.183 57.4728 184.337 57.635 184.26C57.9404 184.106 57.7161 183.65 57.5491 183.353C57.0719 182.493 57.4059 181.432 57.8688 180.539C58.3318 179.646 58.9378 178.806 58.9522 177.817C58.9226 177.497 58.9226 177.176 58.9522 176.857C59.1026 176.406 59.3411 175.989 59.6537 175.632C60.0548 174.98 60.3163 174.251 60.4215 173.491C60.5267 172.731 60.4732 171.958 60.2645 171.22C59.8328 169.749 59.1248 168.375 58.1791 167.173C55.6688 163.716 52.1373 160.797 50.739 156.73Z" fill="#454B69"/>
<path opacity="0.1" d="M73.355 153.873L75.3021 154.987C74.7052 155.266 74.0934 155.511 73.4696 155.722C69.079 157.205 70.6444 159.265 66.0152 159.207C62.8607 159.174 59.2624 158.929 57.0529 161.195C56.0125 162.261 55.4875 163.721 54.9912 165.132C54.7622 165.775 54.5379 166.419 54.3136 167.053C53.3305 165.675 52.3235 164.301 51.307 162.948C50.4814 161.853 49.6319 160.744 49.2167 159.433C48.7645 157.976 48.8858 156.4 49.5556 155.03C50.1118 154.078 50.7505 153.176 51.4645 152.337C52.1402 151.307 52.8731 150.316 53.6598 149.37C54.0568 148.898 54.5441 148.512 55.0926 148.234C55.6411 147.956 56.2396 147.792 56.8524 147.752C57.5635 147.752 58.3939 147.953 58.8854 147.44C59.0668 147.257 59.1622 147.012 59.3626 146.835C59.8828 146.355 60.7371 146.676 61.3622 147.032L73.355 153.873Z" fill="black"/>
<path d="M84.9707 117.178C84.9066 116.603 84.7653 116.039 84.5508 115.502C84.3451 115.089 84.0833 114.706 83.7729 114.364C82.7612 113.217 81.5214 112.297 80.1338 111.662C78.7461 111.028 77.2414 110.694 75.7173 110.682C75.4519 110.664 75.1861 110.707 74.9394 110.807C74.8778 110.834 74.8201 110.87 74.7676 110.912C72.5675 109.419 69.9953 107.955 67.6091 107.374C65.9537 106.983 64.2284 107.006 62.5839 107.441C60.5843 108.046 59.8875 109.65 59.0381 111.402C57.6716 114.22 55.593 116.627 53.0107 118.383C51.3499 119.511 49.379 120.481 48.582 122.329C47.8375 124.053 48.3434 126.031 48.5199 127.904C48.7267 130.434 48.3091 132.976 47.3042 135.304C46.2993 137.633 44.7383 139.675 42.7598 141.251C40.4882 143.023 37.4578 144.501 36.9757 147.348C36.6321 149.375 37.7632 151.319 38.6174 153.187C40.4261 157.133 41.0465 161.954 38.9228 165.737C38.3168 166.812 37.4912 167.797 37.181 168.987C36.6131 171.105 37.8205 173.405 39.6196 174.634C41.4188 175.863 43.6856 176.199 45.8618 176.189C47.4462 176.189 49.1594 175.949 50.2809 174.83C50.9778 174.023 51.4851 173.068 51.7651 172.036C52.6814 169.428 53.5993 166.82 54.5187 164.215C54.9959 162.803 55.54 161.334 56.5803 160.278C58.7851 158.012 62.3882 158.252 65.5379 158.29C70.1718 158.348 68.6065 156.293 72.9923 154.805C75.5693 153.931 78.3706 152.443 78.972 149.773C79.5733 147.104 77.7884 144.684 76.2279 142.523C75.0571 140.923 73.9531 139.266 72.9159 137.554C71.8994 135.902 70.9306 134.16 70.6491 132.239C70.1718 129.046 77.8791 127.265 79.034 124.255C79.3636 123.405 79.6409 122.536 79.8644 121.653C80.418 121.609 80.9286 121.556 81.2961 121.542C82.7707 121.475 84.4267 120.894 84.9326 119.502C85.1386 118.742 85.1518 117.943 84.9707 117.178Z" fill="#AC2A0E"/>
<g opacity="0.1">
<path opacity="0.1" d="M72.0139 109.746C72.2619 109.651 72.527 109.61 72.7918 109.626H72.9016C71.2737 108.593 69.5054 107.804 67.6521 107.283L67.2083 107.191C68.833 107.944 70.3912 108.833 71.866 109.851C71.9121 109.812 71.9616 109.776 72.0139 109.746Z" fill="black"/>
<path opacity="0.1" d="M84.9708 117.087C84.9066 116.512 84.7653 115.948 84.5508 115.411C84.3463 114.997 84.0844 114.613 83.7729 114.273C82.1412 112.424 79.9365 111.184 77.5164 110.754C78.7865 111.375 79.9219 112.243 80.857 113.308C81.1704 113.645 81.4326 114.027 81.6349 114.441C81.8533 114.978 81.9947 115.544 82.0549 116.122C82.239 116.886 82.2292 117.685 82.0263 118.445C81.5252 119.838 79.8644 120.419 78.3945 120.481C78.0366 120.481 77.5212 120.553 76.9628 120.591C76.7401 121.477 76.4628 122.348 76.1325 123.199C74.9776 126.204 67.2846 128 67.7523 131.183C68.0291 133.103 69.0027 134.846 70.0144 136.498C71.0261 138.149 72.1619 139.859 73.3264 141.467C74.8869 143.628 76.667 146.11 76.0704 148.717C75.4739 151.324 72.6726 152.875 70.0955 153.748C65.705 155.237 67.2703 157.292 62.6412 157.234C59.4867 157.196 55.8836 156.956 53.6788 159.222C52.6384 160.288 52.1135 161.747 51.6172 163.159L48.8636 170.98C48.5825 172.01 48.0772 172.965 47.3841 173.774C46.2579 174.893 44.5446 175.123 42.965 175.128C42.0653 175.138 41.1665 175.071 40.2782 174.927C41.958 175.844 43.9576 176.108 45.8856 176.098C47.47 176.098 49.1833 175.858 50.3048 174.739C51.0017 173.932 51.509 172.977 51.789 171.945C52.7053 169.34 53.6231 166.732 54.5426 164.124C55.0198 162.712 55.5639 161.243 56.6042 160.187C58.809 157.921 62.4121 158.161 65.5618 158.199C70.1957 158.257 68.6304 156.202 73.0162 154.714C75.5932 153.84 78.3945 152.351 78.9958 149.682C79.5972 147.012 77.8123 144.593 76.2518 142.432C75.081 140.832 73.977 139.175 72.9398 137.463C71.9233 135.811 70.9545 134.068 70.673 132.148C70.1957 128.955 77.903 127.174 79.0579 124.164C79.3875 123.314 79.6648 122.445 79.8883 121.561C80.4418 121.518 80.9525 121.465 81.32 121.451C82.7946 121.384 84.4506 120.803 84.9564 119.41C85.1547 118.649 85.1596 117.85 84.9708 117.087Z" fill="black"/>
</g>
</g>
<defs>
<linearGradient id="paint0_linear_364:244" x1="258.086" y1="303.123" x2="258.086" y2="47.0421" gradientUnits="userSpaceOnUse">
<stop stop-color="#808080" stop-opacity="0.25"/>
<stop offset="0.54" stop-color="#808080" stop-opacity="0.12"/>
<stop offset="1" stop-color="#808080" stop-opacity="0.1"/>
</linearGradient>
<linearGradient id="paint1_linear_364:244" x1="-2106.92" y1="1010.47" x2="-2094.16" y2="1010.47" gradientUnits="userSpaceOnUse">
<stop stop-color="#808080" stop-opacity="0.25"/>
<stop offset="0.54" stop-color="#808080" stop-opacity="0.12"/>
<stop offset="1" stop-color="#808080" stop-opacity="0.1"/>
</linearGradient>
<linearGradient id="paint2_linear_364:244" x1="82188.1" y1="192858" x2="82188.1" y2="71069.9" gradientUnits="userSpaceOnUse">
<stop stop-color="#808080" stop-opacity="0.25"/>
<stop offset="0.54" stop-color="#808080" stop-opacity="0.12"/>
<stop offset="1" stop-color="#808080" stop-opacity="0.1"/>
</linearGradient>
<clipPath id="clip0_364:244">
<rect width="503" height="362" fill="white"/>
</clipPath>
</defs>
</svg>
