<svg width="474" height="343" viewBox="0 0 474 343" fill="none" xmlns="http://www.w3.org/2000/svg">
<g clip-path="url(#clip0_365:604)">
<path d="M302.381 257.137V339.82H95.2718C71.6744 339.82 52.4753 321.274 52.4753 298.478C52.4753 275.683 71.6744 257.137 95.2718 257.137H302.381Z" fill="#F2F2F2"/>
<path d="M307.469 339.184C307.468 340.027 307.133 340.836 306.537 341.432C305.941 342.029 305.132 342.364 304.289 342.364H91.5828C80.0304 342.364 68.9511 337.774 60.7822 329.603C52.6134 321.433 48.0242 310.351 48.0242 298.796C48.0242 287.241 52.6134 276.16 60.7822 267.989C68.9511 259.819 80.0304 255.229 91.5828 255.229H304.289C305.132 255.229 305.941 255.564 306.537 256.16C307.134 256.756 307.469 257.565 307.469 258.409C307.469 259.252 307.134 260.061 306.537 260.657C305.941 261.254 305.132 261.589 304.289 261.589H91.5828C81.7169 261.589 72.255 265.509 65.2786 272.487C58.3023 279.464 54.3831 288.928 54.3831 298.796C54.3831 308.664 58.3023 318.128 65.2786 325.106C72.255 332.084 81.7169 336.004 91.5828 336.004H304.289C305.132 336.004 305.941 336.339 306.537 336.936C307.133 337.532 307.468 338.341 307.469 339.184Z" fill="#12DA97"/>
<path d="M302.381 276.217H79.8188C79.6501 276.217 79.4884 276.15 79.3691 276.031C79.2499 275.912 79.1829 275.75 79.1829 275.581C79.1829 275.413 79.2499 275.251 79.3691 275.132C79.4884 275.012 79.6501 274.945 79.8188 274.945H302.381C302.55 274.945 302.712 275.012 302.831 275.132C302.95 275.251 303.017 275.413 303.017 275.581C303.017 275.75 302.95 275.912 302.831 276.031C302.712 276.15 302.55 276.217 302.381 276.217Z" fill="#CCCCCC"/>
<path d="M302.381 291.482H79.8188C79.6501 291.482 79.4884 291.415 79.3691 291.296C79.2499 291.176 79.1829 291.015 79.1829 290.846C79.1829 290.677 79.2499 290.516 79.3691 290.396C79.4884 290.277 79.6501 290.21 79.8188 290.21H302.381C302.55 290.21 302.712 290.277 302.831 290.396C302.95 290.516 303.017 290.677 303.017 290.846C303.017 291.015 302.95 291.176 302.831 291.296C302.712 291.415 302.55 291.482 302.381 291.482Z" fill="#CCCCCC"/>
<path d="M302.381 306.747H79.8188C79.6501 306.747 79.4884 306.68 79.3691 306.56C79.2499 306.441 79.1829 306.279 79.1829 306.111C79.1829 305.942 79.2499 305.78 79.3691 305.661C79.4884 305.542 79.6501 305.475 79.8188 305.475H302.381C302.55 305.475 302.712 305.542 302.831 305.661C302.95 305.78 303.017 305.942 303.017 306.111C303.017 306.279 302.95 306.441 302.831 306.56C302.712 306.68 302.55 306.747 302.381 306.747Z" fill="#CCCCCC"/>
<path d="M302.381 322.011H79.8188C79.6501 322.011 79.4884 321.944 79.3691 321.825C79.2499 321.706 79.1829 321.544 79.1829 321.375C79.1829 321.207 79.2499 321.045 79.3691 320.926C79.4884 320.806 79.6501 320.739 79.8188 320.739H302.381C302.55 320.739 302.712 320.806 302.831 320.926C302.95 321.045 303.017 321.207 303.017 321.375C303.017 321.544 302.95 321.706 302.831 321.825C302.712 321.944 302.55 322.011 302.381 322.011Z" fill="#CCCCCC"/>
<path d="M462.447 272.701L410.58 337.085L249.308 207.112C230.933 192.304 227.617 165.814 241.917 148.064C256.216 130.313 282.8 127.92 301.174 142.729L462.447 272.701Z" fill="#F2F2F2"/>
<path d="M414.94 339.782C414.411 340.438 413.643 340.858 412.805 340.948C411.966 341.038 411.127 340.792 410.47 340.263L244.84 206.778C235.844 199.529 230.096 189.002 228.86 177.513C227.625 166.024 231.003 154.515 238.251 145.518C245.499 136.52 256.024 130.771 267.51 129.535C278.997 128.299 290.503 131.678 299.499 138.928L465.129 272.412C465.454 272.674 465.725 272.997 465.925 273.364C466.126 273.731 466.252 274.133 466.297 274.548C466.342 274.964 466.304 275.384 466.186 275.785C466.069 276.186 465.873 276.559 465.611 276.885C465.349 277.21 465.026 277.481 464.659 277.681C464.293 277.881 463.89 278.007 463.475 278.051C463.059 278.096 462.639 278.058 462.239 277.94C461.838 277.823 461.464 277.627 461.139 277.365L295.509 143.88C291.705 140.812 287.335 138.524 282.647 137.146C277.958 135.768 273.045 135.327 268.186 135.849C263.328 136.371 258.62 137.845 254.331 140.187C250.042 142.529 246.257 145.693 243.191 149.499C240.125 153.305 237.839 157.677 236.463 162.367C235.087 167.057 234.649 171.972 235.172 176.831C235.696 181.69 237.171 186.399 239.515 190.687C241.858 194.976 245.023 198.761 248.829 201.826L414.46 335.31C415.116 335.84 415.535 336.608 415.625 337.446C415.716 338.285 415.469 339.125 414.94 339.782Z" fill="#CCCCCC"/>
<path d="M450.478 287.558L277.173 147.889C277.108 147.836 277.054 147.772 277.014 147.698C276.974 147.625 276.948 147.545 276.94 147.462C276.931 147.379 276.938 147.295 276.962 147.214C276.985 147.134 277.024 147.06 277.077 146.995C277.129 146.929 277.194 146.875 277.267 146.835C277.34 146.795 277.421 146.77 277.504 146.761C277.587 146.752 277.671 146.76 277.751 146.783C277.831 146.807 277.906 146.846 277.971 146.898L451.276 286.568C451.341 286.62 451.395 286.685 451.435 286.758C451.475 286.832 451.501 286.912 451.51 286.995C451.519 287.078 451.511 287.163 451.488 287.243C451.464 287.323 451.425 287.398 451.373 287.463C451.32 287.528 451.255 287.582 451.182 287.622C451.109 287.662 451.028 287.687 450.945 287.696C450.862 287.705 450.778 287.697 450.698 287.674C450.618 287.65 450.543 287.611 450.478 287.559V287.558Z" fill="#CCCCCC"/>
<path d="M440.902 299.445L267.597 159.775C267.466 159.669 267.383 159.516 267.365 159.348C267.347 159.18 267.396 159.012 267.502 158.881C267.608 158.75 267.761 158.666 267.929 158.648C268.096 158.63 268.264 158.679 268.395 158.785L441.7 298.454C441.766 298.507 441.82 298.571 441.86 298.645C441.9 298.718 441.925 298.798 441.934 298.882C441.943 298.965 441.936 299.049 441.912 299.129C441.889 299.209 441.85 299.284 441.797 299.349C441.745 299.414 441.68 299.468 441.607 299.508C441.533 299.548 441.453 299.573 441.37 299.582C441.287 299.591 441.203 299.584 441.122 299.56C441.042 299.536 440.967 299.497 440.902 299.445Z" fill="#CCCCCC"/>
<path d="M431.327 311.331L258.022 171.661C257.891 171.555 257.807 171.402 257.789 171.234C257.771 171.066 257.82 170.898 257.926 170.767C258.032 170.636 258.185 170.552 258.353 170.534C258.521 170.516 258.689 170.565 258.82 170.671L432.125 310.34C432.19 310.393 432.244 310.458 432.284 310.531C432.324 310.604 432.349 310.685 432.358 310.768C432.367 310.851 432.36 310.935 432.336 311.015C432.313 311.095 432.274 311.17 432.221 311.235C432.169 311.3 432.104 311.354 432.031 311.394C431.958 311.434 431.877 311.459 431.794 311.468C431.711 311.477 431.627 311.47 431.547 311.446C431.467 311.422 431.392 311.383 431.327 311.331V311.331Z" fill="#CCCCCC"/>
<path d="M421.752 323.217L248.447 183.548C248.382 183.495 248.328 183.43 248.288 183.357C248.248 183.284 248.222 183.203 248.213 183.12C248.205 183.037 248.212 182.953 248.236 182.873C248.259 182.793 248.298 182.718 248.351 182.653C248.403 182.588 248.468 182.534 248.541 182.494C248.614 182.454 248.695 182.429 248.778 182.42C248.861 182.411 248.945 182.418 249.025 182.442C249.105 182.466 249.18 182.505 249.245 182.557L422.55 322.227C422.615 322.279 422.669 322.344 422.709 322.417C422.749 322.49 422.775 322.571 422.784 322.654C422.793 322.737 422.785 322.821 422.762 322.901C422.738 322.982 422.699 323.056 422.647 323.122C422.594 323.187 422.529 323.241 422.456 323.281C422.383 323.321 422.302 323.346 422.219 323.355C422.136 323.364 422.052 323.356 421.972 323.333C421.892 323.309 421.817 323.27 421.752 323.217Z" fill="#CCCCCC"/>
<path d="M473.364 343H1.5314C1.36275 343 1.20101 342.933 1.08176 342.814C0.962503 342.694 0.895508 342.533 0.895508 342.364C0.895508 342.195 0.962503 342.034 1.08176 341.914C1.20101 341.795 1.36275 341.728 1.5314 341.728H473.364C473.533 341.728 473.695 341.795 473.814 341.914C473.933 342.034 474 342.195 474 342.364C474 342.533 473.933 342.694 473.814 342.814C473.695 342.933 473.533 343 473.364 343Z" fill="#CCCCCC"/>
<path d="M215.879 248.446L208.609 248.445L205.152 220.399L215.882 220.4L215.879 248.446Z" fill="#FFB8B8"/>
<path d="M203.416 246.368H217.436V255.197H194.589C194.589 254.037 194.817 252.889 195.261 251.818C195.704 250.747 196.355 249.774 197.174 248.954C197.994 248.134 198.967 247.483 200.038 247.04C201.109 246.596 202.257 246.368 203.416 246.368Z" fill="#2F2E41"/>
<path d="M141.61 248.446L134.34 248.445L130.883 220.399L141.612 220.4L141.61 248.446Z" fill="#FFB8B8"/>
<path d="M129.148 246.368H143.168V255.197H120.32C120.32 254.037 120.548 252.889 120.992 251.818C121.436 250.747 122.086 249.774 122.906 248.954C123.725 248.134 124.698 247.483 125.769 247.04C126.84 246.596 127.988 246.368 129.148 246.368Z" fill="#2F2E41"/>
<path d="M165.891 40.4088V37.2286C165.891 31.7886 168.052 26.5713 171.898 22.7246C175.744 18.8779 180.96 16.7168 186.399 16.7168H186.399C191.838 16.7168 197.054 18.8779 200.9 22.7246C204.746 26.5713 206.906 31.7886 206.906 37.2286V40.4088C206.906 44.3307 205.349 48.092 202.576 50.8652C199.803 53.6384 196.043 55.1964 192.122 55.1964H180.676C178.734 55.1964 176.812 54.8139 175.018 54.0708C173.224 53.3276 171.594 52.2384 170.221 50.8652C168.849 49.4921 167.76 47.8619 167.017 46.0678C166.274 44.2737 165.891 42.3507 165.891 40.4088Z" fill="#AC2A0E"/>
<path d="M186.399 56.2908C195.024 56.2908 202.017 49.2968 202.017 40.6693C202.017 32.0418 195.024 25.0479 186.399 25.0479C177.773 25.0479 170.781 32.0418 170.781 40.6693C170.781 49.2968 177.773 56.2908 186.399 56.2908Z" fill="#FFB8B8"/>
<path d="M101.446 94.3579C102.08 93.7593 102.837 93.307 103.664 93.0328C104.492 92.7586 105.369 92.6692 106.235 92.7709C107.101 92.8727 107.934 93.163 108.675 93.6215C109.417 94.0801 110.049 94.6956 110.527 95.4248L123.915 92.8917L127.439 100.654L108.481 103.966C107.203 104.687 105.705 104.915 104.27 104.606C102.836 104.297 101.564 103.472 100.697 102.287C99.8297 101.103 99.427 99.6417 99.565 98.1803C99.7031 96.7188 100.372 95.3588 101.446 94.3579V94.3579Z" fill="#FFB8B8"/>
<path d="M174.222 66.1286L174.398 66.394L152.443 80.86L115.397 92.6921C114.906 92.85 114.484 93.1732 114.205 93.6067C113.925 94.0402 113.804 94.5572 113.863 95.0698L114.671 102.032C114.707 102.34 114.807 102.638 114.964 102.905C115.122 103.172 115.333 103.404 115.585 103.584C115.837 103.765 116.124 103.891 116.428 103.954C116.732 104.018 117.045 104.017 117.348 103.952L152.214 96.4769C153.902 96.1172 155.497 95.4146 156.902 94.4127L181.567 76.8603C182.461 76.2206 183.174 75.3602 183.638 74.363C184.101 73.3658 184.299 72.2657 184.211 71.1695C184.12 70.0719 183.746 69.0167 183.124 68.1077C182.502 67.1988 181.655 66.4675 180.664 65.9856C179.674 65.5038 178.576 65.288 177.477 65.3596C176.378 65.4312 175.317 65.7877 174.398 66.394L174.222 66.1286Z" fill="#CCCCCC"/>
<path d="M208.739 240.487C208.181 240.487 207.635 240.325 207.168 240.02C206.701 239.715 206.332 239.28 206.108 238.769L172.781 156.403C172.703 156.224 172.572 156.074 172.407 155.972C172.241 155.869 172.047 155.821 171.853 155.832C171.658 155.843 171.472 155.913 171.318 156.033C171.165 156.153 171.052 156.317 170.995 156.504L143.805 236.69C143.69 237.063 143.501 237.409 143.247 237.706C142.994 238.003 142.683 238.245 142.332 238.417C141.982 238.589 141.6 238.688 141.21 238.707C140.82 238.726 140.431 238.666 140.065 238.529L130.947 235.109C130.453 234.925 130.018 234.607 129.693 234.191C129.368 233.775 129.164 233.277 129.105 232.753C125.003 197.013 160.773 106.8 161.135 105.894L161.235 105.642L193.842 112.857L193.909 112.931C206.918 127.125 217.611 216.655 219.623 234.458C219.698 235.102 219.551 235.751 219.208 236.3C218.865 236.848 218.345 237.264 217.733 237.477L209.685 240.324C209.382 240.432 209.062 240.487 208.739 240.487Z" fill="#2F2E41"/>
<path d="M180.645 115.76C172.745 115.76 163.937 114.185 161.226 107.682L161.164 107.533L161.248 107.395C163.388 103.883 166.216 97.892 164.696 96.7675C161.702 94.5529 160.249 90.9097 160.378 85.9389C160.658 75.1482 168.009 65.5677 178.67 62.0991H178.67C181.645 61.1465 184.674 60.3667 187.739 59.7634C189.974 59.3123 192.281 59.3619 194.495 59.9086C196.708 60.4554 198.773 61.4857 200.542 62.9255C202.332 64.3747 203.779 66.2026 204.779 68.2778C205.779 70.353 206.307 72.624 206.326 74.9277C206.437 86.4594 204.662 102.521 195.571 113.547C195.145 114.059 194.552 114.404 193.897 114.521C189.523 115.313 185.09 115.727 180.645 115.76Z" fill="#CCCCCC"/>
<path d="M177.706 115.329C178.136 113.786 179.158 112.476 180.548 111.682C181.939 110.888 183.586 110.676 185.133 111.09C185.448 111.178 185.756 111.292 186.053 111.431L196.219 102.178L203.289 106.942L188.751 119.809C188.095 120.993 187.061 121.923 185.815 122.452C184.57 122.98 183.183 123.077 181.875 122.726C181.114 122.518 180.401 122.16 179.779 121.675C179.156 121.189 178.636 120.585 178.248 119.897C177.861 119.209 177.613 118.451 177.52 117.667C177.427 116.883 177.49 116.088 177.706 115.329Z" fill="#FFB8B8"/>
<path d="M194.609 115.446C193.949 115.446 193.31 115.218 192.799 114.8L188.79 111.524C188.456 111.251 188.188 110.905 188.006 110.514C187.824 110.122 187.733 109.695 187.74 109.263C187.747 108.832 187.851 108.407 188.045 108.021C188.239 107.636 188.517 107.299 188.86 107.036L205.674 94.1379C205.873 93.9843 206.004 93.7582 206.038 93.5088C206.071 93.2594 206.005 93.0067 205.854 92.8056L195.476 79.0826C194.27 77.4936 193.666 75.5291 193.769 73.5369C193.872 71.5447 194.677 69.6533 196.04 68.1975C197.477 66.6462 199.443 65.6915 201.55 65.5229C203.657 65.3544 205.751 65.9842 207.415 67.2876L207.481 67.3568L218.318 82.8774C219.489 83.7964 220.433 84.9738 221.075 86.3179C221.716 87.662 222.039 89.1362 222.016 90.6255C221.994 92.1147 221.628 93.5787 220.947 94.903C220.266 96.2274 219.287 97.3763 218.089 98.26L196.312 114.885C195.819 115.249 195.222 115.446 194.609 115.446Z" fill="#CCCCCC"/>
<path d="M172.564 36.2744V28.5237L186.399 22.4814L199.59 28.5237V36.2744C199.59 36.6118 199.456 36.9353 199.217 37.1739C198.979 37.4124 198.655 37.5465 198.318 37.5465H173.836C173.499 37.5465 173.175 37.4124 172.937 37.1739C172.698 36.9353 172.564 36.6118 172.564 36.2744Z" fill="#AC2A0E"/>
<path d="M185.764 17.7449C183.73 11.2329 188.002 3.76991 194.317 1.1923C200.633 -1.3853 208.188 0.416522 213.517 4.67511C218.846 8.9337 222.152 15.3123 223.904 21.9058C225.656 28.4993 225.989 35.3748 226.312 42.1895C234.071 43.6151 239.35 52.8203 236.662 60.2389C233.974 67.6575 224.025 71.3432 217.154 67.4656C210.283 63.5881 208.293 53.1648 213.252 47.0278C215.598 44.1238 216.909 40.5199 216.976 36.7868C217.044 33.0537 215.864 29.4048 213.624 26.418C211.384 23.4312 208.212 21.2773 204.61 20.2974C201.007 19.3175 197.181 19.5676 193.738 21.0081C189.913 22.6077 185.115 18.4517 185.764 17.7449Z" fill="#AC2A0E"/>
<path d="M98.5776 64.2913C89.2876 64.2303 80.1138 62.2207 71.6487 58.3922C71.1448 58.1676 70.7171 57.8012 70.4177 57.3378C70.1183 56.8743 69.9601 56.3338 69.9624 55.782V32.6192C69.9633 31.8604 70.265 31.1329 70.8015 30.5963C71.3379 30.0597 72.0653 29.7579 72.8239 29.7571H124.331C125.09 29.7579 125.817 30.0598 126.354 30.5963C126.89 31.1329 127.192 31.8604 127.193 32.6192V55.782C127.195 56.3338 127.037 56.8743 126.738 57.3378C126.438 57.8012 126.01 58.1676 125.507 58.3923C117.041 62.2207 107.868 64.2303 98.5776 64.2913Z" fill="#12DA97"/>
<path d="M98.5705 45.5267C98.1887 45.5271 97.8106 45.451 97.4586 45.3031L56.6139 28.0671C56.0872 27.8448 55.6391 27.4698 55.3274 26.9905C55.0157 26.5112 54.8548 25.9495 54.8652 25.3778C54.8757 24.8061 55.0572 24.2506 55.3862 23.783C55.7152 23.3154 56.1767 22.9571 56.7113 22.7543L97.5565 7.25581C98.2143 7.00504 98.9417 7.00658 99.5985 7.26016L139.896 22.7586C140.428 22.9631 140.886 23.3215 141.213 23.7879C141.54 24.2544 141.72 24.8078 141.73 25.3772C141.741 25.9467 141.581 26.5063 141.272 26.9845C140.963 27.4628 140.518 27.8378 139.994 28.0618L99.696 45.2975C99.3402 45.4491 98.9573 45.5271 98.5705 45.5267Z" fill="#12DA97"/>
<path d="M74.7316 59.9683C76.8388 59.9683 78.547 58.2597 78.547 56.1521C78.547 54.0445 76.8388 52.3359 74.7316 52.3359C72.6244 52.3359 70.9163 54.0445 70.9163 56.1521C70.9163 58.2597 72.6244 59.9683 74.7316 59.9683Z" fill="#3F3D56"/>
<path opacity="0.2" d="M140.134 25.6152L99.8353 42.851C99.5211 42.9854 99.1831 43.0551 98.8414 43.0559C98.4997 43.0567 98.1614 42.9887 97.8465 42.8558L57.0019 25.6203C56.4889 25.409 56.061 25.0328 55.7857 24.5511C55.6056 24.8634 55.494 25.2105 55.4583 25.5694C55.4226 25.9282 55.4636 26.2905 55.5786 26.6322C55.6937 26.974 55.8801 27.2873 56.1254 27.5515C56.3708 27.8156 56.6696 28.0246 57.0019 28.1644L97.8465 45.3999C98.1614 45.5328 98.4997 45.6008 98.8414 45.6C99.1831 45.5992 99.5211 45.5295 99.8353 45.3951L140.134 28.1593C140.464 28.0183 140.761 27.8087 141.005 27.5444C141.249 27.2801 141.434 26.9672 141.547 26.6262C141.661 26.2852 141.701 25.9239 141.665 25.5662C141.629 25.2085 141.518 24.8625 141.338 24.551C141.065 25.0289 140.642 25.403 140.134 25.6152Z" fill="black"/>
<path d="M75.0522 56.1373C75.2208 56.1373 75.3826 56.0703 75.5018 55.951C75.6211 55.8317 75.6881 55.67 75.6881 55.5013V34.2189L96.6606 26.577C96.8292 26.5795 96.9919 26.5149 97.113 26.3974C97.234 26.2799 97.3034 26.1191 97.3059 25.9504C97.3084 25.7817 97.2439 25.619 97.1264 25.4979C97.0089 25.3769 96.8482 25.3074 96.6795 25.3049L75.707 32.9469C75.5382 32.943 75.3704 32.9734 75.2138 33.0363C75.0571 33.0992 74.9148 33.1932 74.7955 33.3127C74.675 33.4308 74.5793 33.5718 74.5142 33.7274C74.449 33.8831 74.4158 34.0502 74.4163 34.2189V55.5013C74.4163 55.6699 74.4833 55.8317 74.6025 55.951C74.7218 56.0703 74.8835 56.1373 75.0522 56.1373Z" fill="#3F3D56"/>
</g>
<defs>
<clipPath id="clip0_365:604">
<rect width="473.105" height="343" fill="white" transform="translate(0.895508)"/>
</clipPath>
</defs>
</svg>
