<svg width="510" height="379" viewBox="0 0 510 379" fill="none" xmlns="http://www.w3.org/2000/svg">
<g clip-path="url(#clip0_364:365)">
<path opacity="0.1" d="M51.2981 37.9498C48.1239 39.265 44.8662 40.9532 43.1219 43.9124C41.2744 47.0385 41.4955 50.9203 41.8395 54.5371C44.8367 85.9057 52.7329 119.267 39.0977 147.681C32.4791 161.466 21.4088 172.513 12.6037 185.032C3.79853 197.551 -2.84954 213.181 1.23856 227.909C6.23075 245.904 24.863 255.881 37.4222 269.73C45.6426 278.784 51.4062 289.787 59.0763 299.312C66.7464 308.838 77.2565 317.23 89.5012 317.789C107.111 318.599 121.439 303.41 138.706 299.892C156.395 296.289 174.206 305.457 188.549 316.43C202.892 327.403 215.937 340.697 232.648 347.548C251.104 355.12 271.908 353.962 291.336 358.511C309.025 362.658 325.309 371.477 342.87 376.178C360.431 380.88 381.014 380.595 394.62 368.586C412.353 352.883 410.957 324.91 422.283 304.137C432.803 284.835 453.396 273.313 467.257 256.249C492.198 225.538 491.383 178.598 470.205 145.198C449.028 111.798 410.667 91.5739 371.442 86.3081C353.753 83.9378 335.539 84.2617 318.533 78.8684C273.014 64.4404 245.925 12.745 199.452 1.98777C169.912 -4.83853 141.182 6.98359 116.02 21.5343C94.1789 34.1661 74.0283 28.5323 51.2981 37.9498Z" fill="#12DA97"/>
<path d="M95.6575 139.289C95.6575 139.289 78.8875 155.096 60.8891 155.567C53.331 155.717 46.0258 158.313 40.0702 162.963C37.2552 165.185 34.6499 167.661 32.2871 170.358" stroke="#535461" stroke-width="2" stroke-miterlimit="10"/>
<path d="M20.9367 170.746C23.3542 169.519 32.5819 170.334 32.5819 170.334C32.5819 170.334 27.7961 178.259 25.3786 179.486C24.7996 179.829 24.1563 180.049 23.4886 180.134C22.8208 180.218 22.1429 180.164 21.4967 179.976C20.8506 179.788 20.2501 179.469 19.7325 179.039C19.2148 178.609 18.7911 178.078 18.4876 177.478C18.184 176.878 18.0071 176.222 17.9678 175.551C17.9285 174.88 18.0277 174.208 18.2592 173.577C18.4906 172.946 18.8495 172.369 19.3135 171.882C19.7774 171.395 20.3366 171.008 20.9564 170.746H20.9367Z" fill="#12DA97"/>
<path d="M30.6509 156.735C33.3485 157.02 40.6501 162.713 40.6501 162.713C40.6501 162.713 32.297 166.766 29.624 166.486C28.3734 166.298 27.2439 165.635 26.4704 164.635C25.6969 163.636 25.3391 162.377 25.4714 161.121C25.6037 159.864 26.216 158.707 27.1807 157.891C28.1455 157.074 29.3884 156.66 30.6509 156.735Z" fill="#12DA97"/>
<path d="M53.6858 145.443C55.8674 147.048 59.2971 155.646 59.2971 155.646C59.2971 155.646 50.0546 154.944 47.873 153.344C46.8897 152.551 46.2504 151.409 46.0881 150.157C45.9257 148.905 46.2528 147.638 47.0014 146.621C47.7499 145.604 48.8623 144.913 50.1072 144.694C51.3521 144.475 52.6338 144.743 53.6858 145.443Z" fill="#12DA97"/>
<path d="M73.0404 140.825C75.4627 142.037 80.2977 149.933 80.2977 149.933C80.2977 149.933 71.07 150.802 68.6476 149.59C68.0364 149.323 67.4859 148.935 67.0297 148.449C66.5735 147.964 66.2211 147.39 65.994 146.764C65.7669 146.137 65.6698 145.472 65.7087 144.807C65.7475 144.142 65.9215 143.492 66.22 142.896C66.5186 142.3 66.9354 141.772 67.4451 141.342C67.9548 140.912 68.5467 140.591 69.1848 140.397C69.8229 140.203 70.4938 140.142 71.1567 140.215C71.8195 140.289 72.4604 140.496 73.0404 140.825Z" fill="#12DA97"/>
<path d="M45.7847 171.649C46.5906 169.063 44.232 160.112 44.232 160.112C44.232 160.112 37.2154 166.158 36.4096 168.744C36.1825 169.368 36.0847 170.032 36.122 170.695C36.1593 171.358 36.331 172.007 36.6266 172.602C36.9222 173.196 37.3357 173.725 37.8419 174.156C38.3482 174.586 38.9367 174.91 39.5718 175.107C40.2069 175.304 40.8753 175.37 41.5367 175.301C42.1981 175.232 42.8386 175.03 43.4195 174.707C44.0004 174.383 44.5095 173.946 44.9161 173.42C45.3226 172.895 45.6182 172.292 45.7847 171.649Z" fill="#12DA97"/>
<path d="M68.3528 165.942C68.3528 163.233 63.4147 155.4 63.4147 155.4C63.4147 155.4 58.5306 163.252 58.5355 165.971C58.5394 167.273 59.0609 168.519 59.9851 169.437C60.9093 170.355 62.1607 170.868 63.4638 170.864C64.767 170.86 66.0152 170.339 66.9339 169.416C67.8526 168.493 68.3666 167.243 68.3627 165.942H68.3528Z" fill="#12DA97"/>
<path d="M89.5254 157.422C89.9775 154.753 86.4397 146.199 86.4397 146.199C86.4397 146.199 80.2928 153.128 79.8457 155.798C79.6947 157.05 80.0324 158.313 80.7887 159.323C81.5451 160.334 82.6619 161.014 83.9075 161.224C85.153 161.433 86.4315 161.156 87.4776 160.449C88.5237 159.742 89.2571 158.66 89.5254 157.427V157.422Z" fill="#12DA97"/>
<path d="M117.449 97.4282C117.449 97.4282 97.2496 86.3471 91.2452 69.3721C88.7784 62.2341 84.0593 56.0881 77.7967 51.8573C74.8082 49.8712 71.6438 48.1628 68.343 46.7535" stroke="#535461" stroke-width="2" stroke-miterlimit="10"/>
<path d="M64.5104 36.0799C66.4218 37.9987 68.4806 47.0236 68.4806 47.0236C68.4806 47.0236 59.4593 44.9134 57.5479 42.9896C56.7038 42.0534 56.2525 40.8289 56.2875 39.5695C56.3225 38.3102 56.8411 37.1125 57.7359 36.2246C58.6307 35.3366 59.8331 34.8263 61.0942 34.7993C62.3553 34.7724 63.5785 35.2309 64.5104 36.0799Z" fill="#12DA97"/>
<path d="M80.848 41.002C81.4081 43.652 78.2291 52.3432 78.2291 52.3432C78.2291 52.3432 71.807 45.6739 71.2469 43.0189C71.0806 42.3769 71.0464 41.7078 71.1462 41.0521C71.2461 40.3965 71.478 39.7678 71.8279 39.2042C72.1778 38.6405 72.6385 38.1536 73.1821 37.7727C73.7257 37.3918 74.3409 37.1249 74.9907 36.9882C75.6404 36.8514 76.3112 36.8476 76.9625 36.977C77.6137 37.1064 78.232 37.3662 78.7799 37.7409C79.3278 38.1156 79.794 38.5973 80.1503 39.157C80.5066 39.7166 80.7456 40.3426 80.8529 40.9971L80.848 41.002Z" fill="#12DA97"/>
<path d="M98.6843 59.4492C97.8293 62.0158 90.6899 67.9195 90.6899 67.9195C90.6899 67.9195 88.5181 58.9241 89.3731 56.3526C89.7842 55.1161 90.6703 54.0934 91.8364 53.5095C93.0026 52.9255 94.3532 52.8281 95.5912 53.2388C96.8292 53.6494 97.8532 54.5344 98.4378 55.6991C99.0225 56.8638 99.12 58.2127 98.7089 59.4492H98.6843Z" fill="#12DA97"/>
<path d="M109.042 76.4046C108.634 79.0792 102.596 86.1018 102.596 86.1018C102.596 86.1018 98.93 77.6021 99.3378 74.9275C99.4058 74.2665 99.6074 73.6262 99.9305 73.0453C100.254 72.4645 100.691 71.9552 101.218 71.5484C101.744 71.1416 102.347 70.8458 102.991 70.6788C103.635 70.5118 104.306 70.4771 104.964 70.5769C105.621 70.6767 106.252 70.9088 106.817 71.2593C107.382 71.6097 107.871 72.0712 108.252 72.6156C108.633 73.1601 108.9 73.7762 109.036 74.4267C109.172 75.0772 109.174 75.7484 109.042 76.3997V76.4046Z" fill="#12DA97"/>
<path d="M71.2862 59.9744C73.9985 59.9449 81.8013 54.9491 81.8013 54.9491C81.8013 54.9491 73.8855 50.1398 71.1732 50.1692C69.87 50.1842 68.6262 50.7156 67.7153 51.6465C66.8044 52.5774 66.3011 53.8316 66.3161 55.1331C66.3311 56.4347 66.8632 57.677 67.7952 58.5867C68.7273 59.4965 69.983 59.9991 71.2862 59.9842V59.9744Z" fill="#12DA97"/>
<path d="M83.6488 79.673C86.2235 78.8338 92.1739 71.7376 92.1739 71.7376C92.1739 71.7376 83.1771 69.5145 80.6024 70.3537C79.967 70.5348 79.3747 70.842 78.861 71.257C78.3472 71.672 77.9226 72.1862 77.6124 72.7689C77.3022 73.3515 77.1128 73.9907 77.0557 74.6481C76.9985 75.3056 77.0747 75.9678 77.2796 76.5952C77.4846 77.2225 77.8142 77.8021 78.2486 78.2994C78.683 78.7966 79.2134 79.2012 79.808 79.489C80.4026 79.7768 81.0492 79.9419 81.7091 79.9743C82.3691 80.0068 83.0288 79.906 83.6488 79.6779V79.673Z" fill="#12DA97"/>
<path d="M98.2913 97.1731C100.974 96.7805 108.04 90.7933 108.04 90.7933C108.04 90.7933 99.5491 87.0833 96.8712 87.4759C96.2117 87.5438 95.5728 87.7443 94.9929 88.0653C94.413 88.3863 93.9041 88.8213 93.497 89.3439C93.0898 89.8665 92.7928 90.4661 92.6238 91.1064C92.4548 91.7467 92.4172 92.4146 92.5135 93.0697C92.6097 93.7249 92.8377 94.3539 93.1837 94.9187C93.5297 95.4836 93.9866 95.9726 94.5269 96.3565C95.0672 96.7403 95.6797 97.011 96.3275 97.1521C96.9752 97.2933 97.6449 97.3021 98.2962 97.178L98.2913 97.1731Z" fill="#12DA97"/>
<path d="M256.459 366.299C354.695 366.299 434.331 286.762 434.331 188.649C434.331 90.5347 354.695 10.9977 256.459 10.9977C158.224 10.9977 78.5878 90.5347 78.5878 188.649C78.5878 286.762 158.224 366.299 256.459 366.299Z" fill="url(#paint0_linear_364:365)"/>
<path d="M256.459 363.355C353.067 363.355 431.383 285.136 431.383 188.649C431.383 92.1609 353.067 13.9421 256.459 13.9421C159.852 13.9421 81.5359 92.1609 81.5359 188.649C81.5359 285.136 159.852 363.355 256.459 363.355Z" fill="#12DA97"/>
<path d="M256.459 327.53C333.257 327.53 395.514 265.351 395.514 188.648C395.514 111.946 333.257 49.7667 256.459 49.7667C179.662 49.7667 117.405 111.946 117.405 188.648C117.405 265.351 179.662 327.53 256.459 327.53Z" fill="#DDE1EC"/>
<path opacity="0.3" d="M260.39 74.3042H252.528V196.991H260.39V74.3042Z" fill="#535461"/>
<g opacity="0.1">
<path opacity="0.1" d="M375.859 185.704H264.812V195.519H375.859V185.704Z" fill="black"/>
<path opacity="0.1" d="M186.412 148.983L181.853 157.678L251.725 194.223L256.284 185.528L186.412 148.983Z" fill="black"/>
<path opacity="0.1" d="M256.459 205.334C264.6 205.334 271.2 198.743 271.2 190.612C271.2 182.481 264.6 175.889 256.459 175.889C248.318 175.889 241.719 182.481 241.719 190.612C241.719 198.743 248.318 205.334 256.459 205.334Z" fill="black"/>
</g>
<path d="M375.859 183.741H264.812V193.556H375.859V183.741Z" fill="#535461"/>
<path d="M256.316 183.577L186.444 147.032L181.885 155.727L251.757 192.271L256.316 183.577Z" fill="#535461"/>
<path d="M256.459 203.371C264.6 203.371 271.2 196.78 271.2 188.649C271.2 180.518 264.6 173.926 256.459 173.926C248.318 173.926 241.719 180.518 241.719 188.649C241.719 196.78 248.318 203.371 256.459 203.371Z" fill="#535461"/>
<g opacity="0.1">
<path opacity="0.1" d="M128.205 205.334C128.205 128.63 190.46 66.4522 267.259 66.4522C288.815 66.4331 310.079 71.4272 329.367 81.0388C348.655 90.6505 365.437 104.616 378.385 121.828C354.721 78.8779 309.025 49.7667 256.449 49.7667C179.65 49.7667 117.395 111.945 117.395 188.648C117.35 218.781 127.162 248.104 145.339 272.154C134.066 251.684 128.172 228.695 128.205 205.334Z" fill="black"/>
</g>
<path d="M384.94 86.4845C383.289 84.8994 369.393 95.318 369.393 95.318C369.393 95.318 364.445 96.221 365.624 99.612C366.804 103.003 360.441 121.995 360.441 121.995L357.851 118.378C358.102 114.133 356.932 111.125 355.792 109.25C355.699 109.098 355.606 108.951 355.512 108.814L355.964 108.657C355.792 106.34 352.083 102.812 350.112 101.084C350.112 100.834 350.112 100.594 350.112 100.338C350.235 97.5705 351.346 94.6506 350.112 92.1428C348.717 89.2818 344.634 87.8439 344.29 84.7031C344.083 82.8284 345.351 81.1353 345.911 79.3294C347.248 75.0108 344.471 70.6039 341.818 66.884C340.919 65.4893 339.826 64.2301 338.57 63.1445C337.374 62.2713 336.061 61.5708 334.669 61.0637C330.782 59.4934 326.807 58.7032 322.798 57.6285C318.95 56.6078 315.403 56.1219 311.496 57.4028C310.569 57.6524 309.723 58.1377 309.04 58.8112C308.111 59.8516 307.988 61.3337 307.379 62.5753C306.396 64.5726 304.278 65.7651 302.406 67.046C300.534 68.3268 298.657 70.0837 298.647 72.2921C298.647 75.4279 302.234 77.4008 303.433 80.3207C304.554 83.0395 303.433 86.0674 302.809 88.9333C302.548 89.8596 302.523 90.8362 302.735 91.7748C302.983 92.4742 303.356 93.1228 303.836 93.6887C304.578 94.6702 305.374 95.583 306.165 96.5154L305.802 96.6577C299.208 95.9805 294.967 104.343 294.967 104.343C295.272 104.407 295.562 104.48 295.847 104.564L295.567 104.927C293.574 107.511 291.946 110.356 290.727 113.382L285.322 120.616C285.322 120.616 284.142 102.527 286.973 98.4588C289.803 94.3905 284.383 91.9024 284.383 91.9024C284.383 91.9024 272.591 78.7896 270.954 79.9183C269.318 81.047 274.959 95.2934 279.907 97.5558C279.907 97.5558 280.398 102.076 279.416 105.015C278.821 106.875 275.647 126.495 275.647 126.495C275.647 126.495 272.822 142.999 285.779 134.838C294.196 129.548 299.635 120.439 302.406 114.717C302.6 114.315 302.781 113.93 302.952 113.564C303.08 114.171 303.167 114.786 303.212 115.404L303.703 134.313C303.828 138.99 302.806 143.626 300.726 147.818L294.952 159.513L295.596 159.709L295.208 160.269C291.405 165.858 284.939 178.426 298.249 184.83L315.938 187.093L314.995 191.613C314.995 191.613 307.693 205.403 305.571 214.899C304.252 220.714 302.193 226.336 299.443 231.628L299.989 231.918C299.876 232.045 299.758 232.178 299.645 232.315C298.572 233.52 297.864 235.004 297.601 236.595L295.203 239.991C295.203 239.991 294.26 254.006 296.146 257.402C297.178 259.257 300.603 260.435 303.517 261.122C307.841 262.148 311.329 257.687 309.035 254.011L309.005 253.962H308.961C308.47 251.68 306.966 244.599 307.457 241.909C307.595 241.144 307.723 240.383 307.787 239.608C307.905 238.589 308.215 237.601 308.701 236.698C308.779 236.546 308.863 236.398 308.946 236.251L309.202 236.359C309.993 236.698 310.774 237.017 311.516 237.296C310.366 238.342 309.551 240.506 310.533 244.957C310.533 244.957 310.627 256.092 311.477 257.844C312.327 259.596 321.839 261.912 323.49 260.106C325.141 258.3 322.429 252.078 322.429 252.078L322.346 252.137C321.8 248.53 321.127 242.071 322.783 239.529C323.451 238.504 324.1 237.444 324.68 236.452L325.038 235.839C328.114 237.37 331.367 238.523 333.146 237.723C333.146 237.723 340.919 219.634 340.447 217.377C339.976 215.119 352.461 189.566 352.461 189.566C352.461 189.566 363.059 177.788 350.107 169.671C345.995 167.085 342.997 165.348 340.821 164.175L338.998 154.654C338.06 149.663 338.228 144.528 339.489 139.608L341.454 132.119L341.617 131.481C341.617 131.481 346.565 121.308 346.329 116.558C346.311 116.189 346.352 115.819 346.452 115.463C346.506 115.689 346.565 115.924 346.629 116.17C347.928 121.107 349.641 125.927 351.748 130.578C355.507 139.049 361.084 138.376 364.14 137.174C364.795 136.921 365.376 136.51 365.831 135.977C366.287 135.444 366.602 134.806 366.75 134.121C367.85 128.851 370.872 114.084 371.064 110.006C371.235 106.817 371.629 103.644 372.243 100.51C379.997 95.9805 386.591 88.0696 384.94 86.4845Z" fill="url(#paint1_linear_364:365)"/>
<path d="M327.259 231.363C327.259 231.363 326.222 233.439 324.802 235.932C324.247 236.914 323.628 237.969 322.994 238.985C320.749 242.572 322.994 254.002 322.994 254.002L318.081 254.674L313.167 252.22L312.268 243.926V237.861L317.869 231.604L320.326 228.895L327.259 231.363Z" fill="#F8BDC5"/>
<g opacity="0.1">
<path opacity="0.1" d="M327.259 231.363C327.259 231.363 326.222 233.439 324.802 235.932C322.633 234.774 320.536 233.486 318.523 232.075L318.09 231.771L317.859 231.604L320.316 228.895L327.259 231.363Z" fill="black"/>
</g>
<path d="M351.282 189.444C351.282 189.444 339.386 214.771 339.838 217.014C340.29 219.256 332.88 237.188 332.88 237.188C331.19 237.983 328.085 236.84 325.156 235.324C322.948 234.148 320.814 232.837 318.768 231.398L318.336 231.093L318.076 230.907L337.602 176.885L320.326 164.229L319.049 163.292L311.324 157.599L334.91 161.859C334.91 161.859 335.73 161.756 340.069 164.18C342.152 165.343 345.046 167.085 349.046 169.706C361.374 177.788 351.282 189.444 351.282 189.444Z" fill="#5E52AD"/>
<g opacity="0.03">
<path opacity="0.03" d="M351.282 189.444C351.282 189.444 339.386 214.771 339.838 217.014C340.29 219.256 332.88 237.188 332.88 237.188C331.19 237.983 328.085 236.84 325.156 235.324C322.948 234.148 320.814 232.837 318.768 231.398L318.336 231.093L318.076 230.907L337.602 176.885L320.326 164.229L319.049 163.292L311.324 157.599L334.91 161.859C334.91 161.859 335.73 161.756 340.069 164.18C342.152 165.343 345.046 167.085 349.046 169.706C361.374 177.788 351.282 189.444 351.282 189.444Z" fill="black"/>
</g>
<path d="M315.142 235.844C315.142 235.844 309.305 234.946 311.329 244.363C311.329 244.363 311.418 255.405 312.228 257.123C313.039 258.84 322.105 261.157 323.672 259.365C325.24 257.574 322.66 251.41 322.66 251.41C322.66 251.41 316.041 256.229 314.243 251.072C312.445 245.914 315.142 235.844 315.142 235.844Z" fill="#5D3E53"/>
<path d="M311.098 234.053C310.461 234.658 309.943 235.377 309.57 236.173C309.107 237.074 308.812 238.051 308.701 239.058C308.642 239.824 308.519 240.585 308.391 241.34C307.831 244.535 309.978 254.002 309.978 254.002L301.448 255.346L298.308 251.985L297.635 244.589C298.473 242.053 298.927 239.407 298.981 236.737C298.981 234.808 299.964 233.086 300.947 231.83C301.613 230.991 302.377 230.235 303.222 229.577C303.222 229.577 312.897 232.482 311.098 234.053Z" fill="#F8BDC5"/>
<g opacity="0.1">
<path opacity="0.1" d="M311.098 234.053C310.462 234.658 309.943 235.377 309.57 236.173C306.077 234.597 302.406 232.61 301.07 231.874L300.967 231.82C301.633 230.981 302.396 230.225 303.242 229.567C303.242 229.567 312.897 232.482 311.098 234.053Z" fill="black"/>
</g>
<path d="M338.708 182.72C338.708 182.72 333.101 193.257 329.505 201.997C327.146 207.739 322.272 221.411 319.186 230.117L318.734 231.403C317.378 235.255 316.474 237.861 316.474 237.861C315.876 237.865 315.281 237.777 314.71 237.601C314.179 237.458 313.585 237.267 312.951 237.031L312.238 236.762C311.531 236.487 310.764 236.168 310.032 235.834C306.465 234.244 302.662 232.173 301.281 231.417L300.76 231.128C303.394 225.858 305.36 220.281 306.612 214.526C308.632 205.113 315.589 191.461 315.589 191.461L316.489 186.975L299.655 184.732C286.973 178.402 293.134 165.922 296.756 160.381C297.373 159.42 298.041 158.491 298.755 157.599L312.224 160.543C312.224 160.543 314.346 161.221 319.063 163.306L321.23 164.288C323.874 165.5 327.126 167.061 331.057 169.063C344.314 175.757 338.708 182.72 338.708 182.72Z" fill="#5E52AD"/>
<path d="M309.895 253.329C310.375 254.137 310.605 255.069 310.556 256.008C310.506 256.947 310.18 257.85 309.618 258.603C309.056 259.357 308.283 259.927 307.396 260.243C306.51 260.558 305.55 260.605 304.637 260.376C301.88 259.694 298.613 258.526 297.63 256.686C295.837 253.324 296.731 239.426 296.731 239.426L299.09 235.952C299.09 235.952 297.856 251.307 300.775 252.637C303.694 253.967 309.865 253.26 309.865 253.26L309.895 253.329Z" fill="#5D3E53"/>
<path d="M312.283 58.3991C311.386 58.6482 310.572 59.1309 309.924 59.7977C309.04 60.8283 308.941 62.3006 308.342 63.5323C307.408 65.4953 305.394 66.6977 303.605 67.9491C301.817 69.2005 300.033 70.9623 300.023 73.151C300.023 76.2623 303.463 78.2155 304.583 81.106C305.649 83.8052 304.583 86.8036 303.988 89.6451C303.741 90.565 303.717 91.531 303.92 92.462C304.154 93.1525 304.51 93.7957 304.971 94.3612C307.138 97.3056 309.831 99.9164 311.28 103.268C312.381 105.815 312.685 108.627 312.975 111.39C313.393 115.365 313.811 119.414 313.054 123.34C312.98 123.575 312.98 123.826 313.054 124.061C313.183 124.286 313.386 124.46 313.629 124.552C315.059 125.246 316.614 125.644 318.202 125.722C319.79 125.8 321.377 125.557 322.868 125.007C324.359 124.457 325.724 123.611 326.879 122.521C328.035 121.431 328.958 120.118 329.593 118.663C330.576 116.44 330.954 113.756 332.9 112.313C333.127 112.125 333.4 112.001 333.691 111.954C334.15 111.967 334.595 112.116 334.969 112.381C337.494 113.746 340.555 113.785 343.371 113.226C345.071 112.887 346.81 112.283 347.935 110.958C350.152 108.328 348.918 104.397 349.066 100.967C349.184 98.2233 350.24 95.3279 349.066 92.8447C347.739 90.0082 343.842 88.585 343.518 85.4835C343.322 83.6285 344.53 81.9452 345.066 80.1589C346.339 75.8747 343.695 71.507 341.169 67.8215C340.32 66.4467 339.279 65.1992 338.079 64.1163C336.946 63.2548 335.695 62.5606 334.364 62.0552C330.664 60.4995 326.891 59.7143 323.063 58.6543C319.397 57.609 316.022 57.1232 312.283 58.3991Z" fill="#AC2A0E"/>
<path d="M331.077 122.422H318.056V101.349C318.443 99.3255 318.67 97.2744 318.734 95.215C318.734 94.5231 318.734 93.8164 318.734 93.1048C318.611 90.5922 318.09 88.0844 316.724 86.5533C313.133 82.5193 328.394 83.1917 328.394 83.1917C328.862 85.044 329.47 86.8584 330.212 88.6194C331.318 91.367 332.789 93.9536 334.585 96.3094C336.166 98.4056 338.191 100.127 340.516 101.349C349.478 105.835 331.077 122.422 331.077 122.422Z" fill="#F8BDC5"/>
<g opacity="0.1">
<path opacity="0.1" d="M330.198 88.6194C328.875 90.341 327.107 91.6689 325.084 92.4595C323.061 93.2501 320.86 93.4732 318.719 93.1048C318.597 90.5922 318.076 88.0844 316.71 86.5533C313.118 82.5193 328.379 83.1917 328.379 83.1917C328.848 85.044 329.456 86.8584 330.198 88.6194Z" fill="black"/>
</g>
<path d="M320.749 92.6141C327.318 92.6141 332.644 87.2948 332.644 80.7331C332.644 74.1714 327.318 68.8521 320.749 68.8521C314.179 68.8521 308.853 74.1714 308.853 80.7331C308.853 87.2948 314.179 92.6141 320.749 92.6141Z" fill="#F8BDC5"/>
<path d="M370.125 101.128C369.541 104.237 369.167 107.382 369.005 110.541C368.823 114.58 365.944 129.224 364.892 134.45C364.76 135.12 364.463 135.748 364.029 136.276C363.596 136.804 363.038 137.217 362.406 137.478C359.487 138.671 354.181 139.338 350.613 130.941C348.602 126.321 346.97 121.545 345.734 116.661C345.297 115.019 344.969 113.35 344.751 111.665L352.613 107.405C353.353 108.097 353.98 108.9 354.471 109.785C355.556 111.645 356.672 114.629 356.436 118.835L358.893 122.422C358.893 122.422 364.951 103.592 363.806 100.23C362.661 96.8688 367.398 95.9707 367.398 95.9707C367.398 95.9707 380.64 85.665 382.213 87.2305C383.785 88.796 377.53 96.643 370.125 101.128Z" fill="#F8BDC5"/>
<path d="M305.713 110.094C305.1 111.848 304.394 113.568 303.6 115.247C300.957 120.925 295.778 129.97 287.759 135.201C275.416 143.269 278.109 126.907 278.109 126.907C278.109 126.907 281.13 107.454 281.7 105.614C282.6 102.699 282.148 98.2183 282.148 98.2183C277.435 95.9756 272.05 81.8567 273.618 80.7329C275.185 79.6091 286.393 92.6139 286.393 92.6139C286.393 92.6139 291.557 95.0677 288.85 99.1163C286.142 103.165 287.277 121.082 287.277 121.082L292.471 113.922C293.626 110.935 295.178 108.115 297.085 105.54C298.068 104.201 298.755 103.391 298.755 103.391L305.713 110.094Z" fill="#F8BDC5"/>
<g opacity="0.1">
<path opacity="0.1" d="M354.475 109.785C352.825 110.394 346.432 112.97 345.724 116.656C345.287 115.014 344.959 113.345 344.742 111.66L352.603 107.4C353.349 108.092 353.981 108.897 354.475 109.785Z" fill="black"/>
</g>
<g opacity="0.1">
<path opacity="0.1" d="M305.713 110.095C305.1 111.848 304.394 113.568 303.6 115.247C303.296 113.029 302.043 107.356 297.085 105.526C298.068 104.186 298.755 103.376 298.755 103.376L305.713 110.095Z" fill="black"/>
</g>
<g opacity="0.1">
<path opacity="0.1" d="M331.077 122.422H318.056V101.349C318.443 99.3255 318.669 97.2744 318.734 95.215C321.412 97.7963 320.749 101.796 320.749 101.796L327.706 117.5L331.077 103.617L329.957 101.825L334.575 96.3388C336.156 98.435 338.181 100.156 340.506 101.379C349.478 105.835 331.077 122.422 331.077 122.422Z" fill="black"/>
</g>
<g opacity="0.1">
<path opacity="0.1" d="M340.275 165.451C340.275 165.451 330.075 164.641 321.225 164.258L320.336 164.219C319.078 164.17 317.879 164.131 316.705 164.101C308.116 163.895 298.402 160.897 296.751 160.372C297.37 159.413 298.039 158.488 298.755 157.599L312.224 160.543C312.224 160.543 314.346 161.221 319.063 163.306L311.324 157.599L334.91 161.859C334.91 161.859 335.73 161.756 340.069 164.18L340.275 165.451Z" fill="black"/>
</g>
<path d="M331.077 104.49L329.957 102.699L334.939 96.7461C334.939 96.7461 345.213 101.776 347.906 100.672C347.906 100.672 354.417 106.07 354.638 109.191C354.638 109.191 345.213 112.327 345.435 117.043C345.656 121.76 340.963 131.835 340.963 131.835L338.998 139.893C337.788 144.776 337.621 149.859 338.506 154.811L340.3 164.788C340.3 164.788 326.159 163.669 316.715 163.444C307.271 163.218 296.515 159.635 296.515 159.635L302.023 148.059C304.009 143.881 304.982 139.294 304.863 134.671L304.372 115.929C304.372 115.929 303.925 106.517 296.51 104.946C296.51 104.946 300.549 96.6528 306.829 97.3252C306.829 97.3252 315.978 93.512 318.695 96.0885C321.412 98.6649 320.744 102.704 320.744 102.704L327.701 118.408L331.077 104.49Z" fill="#454B69"/>
<g opacity="0.1">
<path opacity="0.1" d="M312.165 78.2842C313.968 78.2842 315.383 76.3752 317.186 76.4733C318.12 76.5224 318.921 77.1162 319.692 77.6511C322.607 79.6672 325.851 81.1617 329.279 82.0679C330.61 82.4212 332.02 82.6862 333.357 82.3623C334.693 82.0384 335.946 80.9882 336.099 79.619C336.136 79.0156 336.056 78.4106 335.863 77.8376C334.35 72.573 330.927 68.0606 326.262 65.1812C324.395 64.0378 322.115 63.1642 320.046 63.8807C318.179 64.5236 316.975 66.2707 315.624 67.7086C314.605 68.7852 313.449 69.7225 312.184 70.496C311.202 71.0898 309.728 71.4775 309.162 72.567C308.096 74.5987 309.772 78.2646 312.165 78.2842Z" fill="black"/>
</g>
<path d="M312.165 77.8375C313.968 77.8375 315.383 75.9285 317.186 76.0267C318.12 76.0758 318.921 76.6696 319.692 77.2045C322.607 79.2205 325.851 80.715 329.279 81.6212C330.61 81.9745 332.02 82.2395 333.357 81.9157C334.693 81.5918 335.946 80.5416 336.099 79.1724C336.136 78.5689 336.056 77.964 335.863 77.391C334.35 72.1264 330.927 67.6139 326.262 64.7346C324.395 63.5911 322.115 62.7176 320.046 63.4341C318.179 64.077 316.975 65.824 315.624 67.2619C314.605 68.3386 313.449 69.2759 312.184 70.0494C311.202 70.6432 309.728 71.0309 309.162 72.1203C308.096 74.1717 309.772 77.813 312.165 77.8375Z" fill="#AC2A0E"/>
<path opacity="0.05" d="M306.725 129.032C306.725 129.032 317.722 133.066 324.906 129.931L328.497 130.156C328.497 130.156 334.467 134.337 340.781 132.468" fill="black"/>
<path opacity="0.05" d="M358.795 122.309C358.795 122.309 357.001 126.569 357.895 127.914L358.795 122.309Z" fill="black"/>
<path opacity="0.05" d="M287.199 120.965C287.199 120.965 288.098 125.224 287.199 126.569V120.965Z" fill="black"/>
<path d="M473.335 218.03C473.335 218.03 452.776 238.563 464.382 269.028C475.988 299.494 444.492 350.159 444.492 350.159C444.492 350.159 444.831 350.11 445.475 350.002C487.697 342.557 508.673 294.331 485.196 258.502C476.445 245.178 469.281 229.552 473.335 218.03Z" fill="#12DA97"/>
<path opacity="0.1" d="M473.335 218.373C473.335 218.373 452.776 238.906 464.382 269.372C475.988 299.837 444.492 350.497 444.492 350.497C444.492 350.497 444.831 350.448 445.475 350.34C487.697 342.896 508.673 294.67 485.196 258.84C476.445 245.521 469.281 229.896 473.335 218.373Z" fill="black"/>
<path d="M473.335 218.03C473.335 218.03 461.729 243.195 473.335 263.728C484.941 284.261 475.3 341.88 444.487 350.159" stroke="#535461" stroke-miterlimit="10"/>
<path d="M509.951 301.074C509.951 301.074 486.493 297.344 484.356 318.339C482.219 339.333 439.235 342.243 439.235 342.243L440.04 342.778C475.516 366.039 509.435 357.594 504.32 326.706C502.433 315.227 502.59 303.695 509.951 301.074Z" fill="#12DA97"/>
<path d="M509.951 301.074C509.951 301.074 491.741 305.064 493.245 321.602C494.748 338.14 466.22 357.962 439.254 342.248" stroke="#535461" stroke-miterlimit="10"/>
<path d="M489.314 343.008C489.314 343.008 470.839 339.318 465.91 334.396C460.982 329.474 438.812 320.866 436.35 327.035C433.889 333.203 403.095 354.099 424.032 357.79C444.969 361.48 473.3 362.697 479.457 360.244C485.614 357.79 489.314 343.008 489.314 343.008Z" fill="#A8A8A8"/>
<path opacity="0.2" d="M424.032 355.488C444.974 359.179 473.301 360.396 479.457 357.942C484.15 356.067 487.407 347.067 488.695 342.876L489.309 343.004C489.309 343.004 485.614 357.765 479.457 360.224C473.301 362.683 444.969 361.456 424.032 357.77C417.988 356.705 416.259 354.202 416.912 351.037C417.423 353.103 419.531 354.693 424.032 355.488Z" fill="black"/>
</g>
<defs>
<linearGradient id="paint0_linear_364:365" x1="256.459" y1="366.299" x2="256.459" y2="10.9977" gradientUnits="userSpaceOnUse">
<stop stop-color="#808080" stop-opacity="0.25"/>
<stop offset="0.54" stop-color="#808080" stop-opacity="0.12"/>
<stop offset="1" stop-color="#808080" stop-opacity="0.1"/>
</linearGradient>
<linearGradient id="paint1_linear_364:365" x1="85988.9" y1="122079" x2="85988.9" y2="36740.2" gradientUnits="userSpaceOnUse">
<stop stop-color="#808080" stop-opacity="0.25"/>
<stop offset="0.54" stop-color="#808080" stop-opacity="0.12"/>
<stop offset="1" stop-color="#808080" stop-opacity="0.1"/>
</linearGradient>
<clipPath id="clip0_364:365">
<rect width="510" height="379" fill="white"/>
</clipPath>
</defs>
</svg>
