<svg width="663" height="473" viewBox="0 0 663 473" fill="none" xmlns="http://www.w3.org/2000/svg">
<g clip-path="url(#clip0_372:703)">
<path d="M515.761 214.498C514.522 211.317 516.292 209.727 517 206.9C517.708 204.072 515.407 195.237 515.407 195.237C515.407 195.237 507.973 164.667 505.672 158.66C504.698 156.117 502.583 154.368 500.468 153.194C500.324 152.414 500.117 151.911 499.831 151.768C497.781 150.744 492.673 148.52 489.269 147.906C488.633 146.814 487.878 145.795 487.019 144.867C487.616 143.722 487.893 142.437 487.821 141.148C487.604 137.814 485.075 134.827 485.404 131.502C485.653 128.981 487.5 126.909 488.212 124.477C488.511 123.385 488.582 122.243 488.42 121.123C488.258 120.002 487.867 118.927 487.272 117.963C487.795 118.519 488.319 119.076 488.843 119.632C489.555 118.566 489.898 117.297 489.819 116.018C489.739 114.739 489.243 113.522 488.405 112.552C486.747 110.723 483.974 110.038 482.688 107.932C481.366 105.768 482.076 102.828 480.826 100.623C477.764 95.2192 469.926 99.0496 465.231 97.1636C463.301 96.3886 461.835 95.5356 459.664 95.5969C457.818 95.7026 455.993 96.0428 454.234 96.6092C451.71 97.3384 449.513 98.9104 448.011 101.062C448.159 100.894 448.321 100.739 448.497 100.599C449.634 99.7085 451.63 99.7826 452.23 101.095C452.374 101.425 452.434 101.785 452.406 102.143C452.307 103.725 450.923 104.907 449.547 105.699C448.171 106.49 446.623 107.153 445.726 108.46C444.244 110.618 445.115 113.514 445.116 116.13C445.104 117.792 444.718 119.431 443.988 120.925C443.257 122.419 442.201 123.731 440.895 124.763L445.89 122.725C443.505 126.892 441.939 131.475 441.277 136.228L448.03 130.659C445.529 134.633 444.009 139.143 443.595 143.818L449.015 138.273C449.262 138.706 449.386 139.199 449.373 139.697L448.808 141.873C448.608 142.305 448.387 142.727 448.145 143.137C447.272 144.632 446.371 146.472 447.186 147.999L447.19 147.997C446.332 150.881 445.036 153.767 442.154 155.17C445.351 155.504 448.687 153.908 450.13 151.369C450.366 151.826 450.65 152.256 450.978 152.652C451.071 152.768 451.163 152.883 451.254 152.998L450.458 153.528L448.323 154.949C448.323 154.949 434.34 157.776 435.225 163.077C435.261 163.295 435.305 163.555 435.354 163.847L431.331 170.675L425.49 190.466C425.49 190.466 422.481 196.827 423.012 199.478C423.543 202.128 423.012 203.189 423.012 207.96C423.012 212.731 420.711 214.674 423.012 218.562C425.313 222.449 432.216 233.758 432.216 233.758L433.732 234.894C433.658 235.576 433.684 236.265 433.809 236.939C435.225 244.007 448.5 311.684 448.5 311.684C448.5 311.684 441.774 365.226 455.403 368.583C457.113 369.004 458.791 369.386 460.422 369.726L462.483 383.249L461.244 400.389C461.244 400.389 451.863 421.594 469.032 422.831C486.202 424.068 478.413 404.454 478.413 404.454C479.32 402.779 479.69 400.867 479.476 398.976C479.3 397.403 477.827 389.217 476.381 381.345C482.897 380.565 481.678 373.661 480.81 370.626C481.186 370.407 481.467 370.057 481.6 369.643C481.796 368.938 481.339 366.165 480.51 362.28C479.836 358.417 478.682 352.163 477.896 347.927L482.131 348.615L500.008 244.007C500.008 244.007 500.126 242.342 500.072 239.906C502.516 238.644 505.037 237.535 507.619 236.586C513.46 234.288 515.761 225.807 517.708 222.273C519.655 218.739 517 217.678 515.761 214.498ZM452.287 147.893C452.866 147.495 453.544 147.266 454.245 147.23C454.094 148.052 452.678 148.292 451.491 148.723C451.709 148.404 451.978 148.124 452.287 147.893ZM443.367 200.538C444.801 202.89 442.205 209.264 439.865 214.321C438.524 213.168 437.125 213.532 438.765 210.257C439.883 208.182 440.547 205.893 440.712 203.542C440.712 203.138 440.919 200.169 442.663 198.936C442.847 199.491 443.083 200.027 443.367 200.538ZM437.995 220.838C438.807 220.508 440.035 220.001 441.695 219.438C440.9 220.48 439.992 221.721 439.079 223.076C438.734 222.815 438.456 222.476 438.268 222.087C438.08 221.698 437.986 221.27 437.995 220.838ZM495.406 223.156C494.33 222.015 493.46 220.994 492.744 220.08C494.079 220.431 495.438 220.808 496.822 221.213C497.511 221.315 498.215 221.268 498.884 221.075C498.946 222.297 498.946 224.04 498.946 224.04L497.007 225.38C496.565 224.577 496.027 223.83 495.406 223.156V223.156ZM500.899 217.028C500.878 217.046 500.856 217.067 500.835 217.085C500.739 216.387 500.581 215.698 500.362 215.028C499.202 211.376 498.582 204.895 498.252 199.366L501.601 210.61C501.601 210.61 501.778 216.265 500.899 217.028Z" fill="#D0CDE1"/>
<path d="M293.666 117.261C291.622 114.184 290.811 110.452 291.394 106.806C291.976 103.16 293.91 99.8652 296.811 97.5752C296.455 97.7712 296.102 97.9791 295.757 98.2078C292.499 100.367 290.234 103.73 289.459 107.557C288.684 111.383 289.463 115.36 291.624 118.614C293.786 121.867 297.153 124.13 300.986 124.906C304.818 125.682 308.803 124.906 312.063 122.75C312.408 122.521 312.737 122.278 313.056 122.026C309.815 123.804 306.022 124.301 302.431 123.418C298.839 122.536 295.711 120.338 293.666 117.261Z" fill="#AC2A0E"/>
<path d="M432.143 170.583C432.143 170.583 413.984 139.425 413.416 136.025C412.849 132.626 403.769 126.395 403.769 126.395C400.667 123.298 395.577 122.318 390.22 122.369C392.238 120.703 385.036 119.583 384.475 118.463C383.907 117.33 382.205 117.33 379.935 115.631C377.665 113.931 371.999 115.347 371.999 115.348C371.147 113.558 370.554 111.657 370.238 109.702C372.657 106.845 373.981 103.225 373.977 99.4851C373.977 99.4444 373.974 99.4044 373.973 99.3637C374.118 99.5882 374.262 99.814 374.407 100.047C375.47 93.6898 377.346 88.4058 373.77 82.6068C371.235 78.4968 367.266 75.4682 362.628 74.1038L359.222 76.8243L360.546 73.6512C359.433 73.4816 358.306 73.4165 357.18 73.4569L354.115 77.3908L355.383 73.5917C352.724 73.9216 350.162 74.7981 347.858 76.1658C345.555 77.5336 343.561 79.3629 342.001 81.5385C338.1 87.1536 338.361 94.959 342.198 100.618C342.211 100.578 342.221 100.54 342.234 100.5C342.403 103.148 343.235 105.71 344.653 107.954C346.072 110.197 348.031 112.049 350.352 113.341L351.316 121.037C350.449 121.842 349.336 122.332 348.156 122.429C346.454 122.429 344.751 126.961 344.751 126.961C344.751 126.961 343.787 127.447 342.747 129.742C340.068 131.563 331.896 137.282 328.865 141.278C327.071 142.159 325.145 144.119 325.457 148.489C326.025 156.42 325.457 193.244 325.457 193.244C325.457 193.244 320.35 224.402 322.052 226.668C323.755 228.934 321.485 236.299 321.485 236.299L323.187 236.677V238.565C323.187 238.565 318.067 262.262 326.025 261.226C339.077 259.526 329.43 240.265 329.43 240.265V238.062L331.699 238.565C331.699 238.565 332.834 230.634 335.104 230.068C335.894 229.87 336.821 227.753 337.694 225.076C338.203 229.252 338.509 231.767 338.509 231.767L342.06 230.979L343.049 234.6C343.293 234.736 343.548 234.852 343.812 234.945L343.049 239.132C343.049 239.132 342.482 243.664 343.049 246.497C343.335 247.925 353.869 278.46 364.241 308.379L364.046 315.612C364.046 315.612 358.938 321.277 360.073 325.243C361.208 329.208 357.236 362.066 357.236 362.066L353.831 378.495L354.688 378.758L353.901 381.637C353.224 381.979 352.621 382.451 352.129 383.027C347.589 388.126 341.914 402.856 341.914 402.856C341.914 402.856 331.699 418.152 347.589 417.585C363.478 417.019 364.613 411.353 364.613 411.353C364.613 411.353 366.883 396.624 366.883 396.057C366.883 395.491 365.748 389.667 365.748 389.667L365.307 389.182L365.615 382.115L368.586 383.027C368.586 383.027 371.423 368.298 373.693 366.598C374.486 366.004 376.597 359.388 379.007 350.889C381.47 357.969 383.855 382.451 384.629 384.674C384.355 385.048 384.113 385.445 383.907 385.86C381.357 390.747 378.514 395.476 375.395 400.023C375.395 400.023 357.236 410.787 375.395 413.619C375.395 413.619 385.61 414.186 390.717 410.787C395.824 407.388 409.444 402.289 409.444 401.156C409.444 400.023 406.039 383.367 402.634 385.18L400.353 379.943L402.634 379.062L388.267 314.683C388.607 313.311 388.857 311.918 389.015 310.513C389.015 307.546 396.363 249.78 398.233 235.128C406.462 237.455 413.984 220.437 413.984 220.437L415.849 217.085L418.524 218.737C418.524 218.737 420.793 213.072 424.198 212.506C427.603 211.939 433.845 181.914 433.845 177.948C433.793 175.402 433.214 172.894 432.143 170.583ZM405.703 214.969C405.145 214.084 404.497 213.258 403.769 212.505C405.253 208.648 406.392 204.666 407.174 200.609C408.309 194.377 405.472 173.982 405.472 173.982L405.422 172.597C408.207 176.247 411.714 181.113 411.714 182.48C411.714 183.14 411.868 183.79 412.163 184.38C412.459 184.97 412.888 185.483 413.416 185.879L410.011 197.776C410.011 197.776 407.741 203.441 407.174 206.274C406.834 207.953 406.644 209.659 406.606 211.372L407.411 211.869L405.703 214.969Z" fill="#D0CDE1"/>
<path d="M172.349 181.069L175.377 180.389L162.893 145.265L135.938 135.351C135.938 135.351 135.834 135.465 135.644 135.662C133.345 133.441 132.369 130.217 131.961 127.68C134.129 126.806 136.076 125.465 137.665 123.753C139.254 122.04 140.444 119.999 141.152 117.775C141.859 115.55 142.066 113.197 141.757 110.884C141.449 108.57 140.633 106.353 139.367 104.391C141.588 103.859 142.381 101.847 143.126 99.4485C142.665 99.3125 142.194 99.2102 141.718 99.1423C142.067 98.3603 142.416 97.5784 142.766 96.7964C142.152 96.7414 141.538 96.6863 140.924 96.6313C141.081 95.9003 141.238 95.1694 141.395 94.4384C140.612 94.9779 139.829 95.5175 139.046 96.057C139.312 95.2896 139.378 94.4673 139.238 93.6674C139.098 92.8675 138.757 92.1162 138.246 91.4841C137.207 90.23 135.851 89.2755 134.318 88.7191C131.321 87.542 128.057 87.2121 124.885 87.7656C121.712 88.3192 118.754 89.7348 116.335 91.8569L116.165 91.1967C111.374 94.8734 108.239 100.297 107.448 106.278C106.696 112.189 109.541 118.209 113.239 122.887C113.208 122.683 113.174 122.479 113.14 122.276C113.3 122.496 113.465 122.711 113.635 122.923L114.09 140.166L112.951 141.14C112.95 141.141 93.8513 149.767 93.1068 160.07L93.1046 160.077C91.9583 165.093 91.3908 191.153 91.3908 191.153H92.9622L91.3908 201.35L81.1762 241.006C81.1762 241.006 68.1242 258.002 79.4737 261.401C86.5264 263.513 88.5386 255.344 89.0517 248.856C89.4603 250.464 90.6824 251.551 93.0932 251.77C93.2829 251.787 93.4855 251.802 93.6814 251.818C88.315 265.662 91.9582 310.688 91.9582 310.688C89.1208 316.353 122.602 355.443 122.602 355.443L124.618 354.37L125.054 355.241C123.932 355.348 123.169 355.443 123.169 355.443V373.005C123.169 373.005 118.062 390.567 124.872 393.966C126.634 394.846 128.472 394.206 130.229 392.777C129.893 398.197 129.412 406.285 129.412 408.129C129.412 410.962 136.789 416.06 136.789 416.06C136.789 416.06 138.491 422.292 152.111 422.292C165.73 422.292 155.516 405.863 155.516 405.863L148.139 389.434C148.139 389.434 147.587 389.704 145.916 388.346L146.514 381.776L149.841 382.069L154.381 315.787C154.381 315.787 158.353 256.869 158.921 247.805C159.054 244.898 158.985 241.987 158.715 239.09L175.377 204.749L172.349 181.069ZM160.056 203.05L158.353 208.972V195.874L160.056 203.05ZM89.21 245.062C89.2241 242.986 89.1209 241.573 89.1209 241.573L100.215 219.422L99.9029 226.277C99.9029 226.277 91.0179 237.497 89.21 245.062ZM115.225 308.988L126.007 271.032L132.249 316.92L131.802 333.602C131.041 332.069 130.431 330.467 129.979 328.817C128.277 322.018 115.225 308.988 115.225 308.988Z" fill="#D0CDE1"/>
<path d="M268.792 399.153C263.475 396.968 253.153 392.284 251.902 389.786C250.651 387.288 244.396 367.93 244.396 367.93L242.785 368.046C242.577 359.252 241.69 325.168 240.33 321.094C240.33 321.094 246.898 267.076 233.762 245.532L231.395 235.986C232.172 232.159 232.072 223.298 231.572 221.802C230.947 219.928 238.766 213.996 236.577 210.249C234.387 206.502 228.445 193.7 228.445 193.7C228.445 193.7 229.07 185.582 220.626 178.088C220.626 178.088 218.158 164.141 207.037 163.933C205.534 161.314 203.43 157.149 204.049 155.295C204.712 153.309 207.247 147.12 208.678 143.655C209.439 143.312 210.169 142.907 210.862 142.442C219.706 138.486 225.941 128.977 225.941 117.867C225.941 105.975 218.798 95.9107 208.956 92.5359C209.394 91.3823 209.574 90.1467 209.481 88.9164C209.389 87.6861 209.027 86.491 208.421 85.4157C207.815 84.3404 206.98 83.411 205.974 82.6932C204.969 81.9755 203.818 81.4868 202.603 81.2619C201.388 81.0369 200.138 81.081 198.942 81.3912C197.746 81.7014 196.632 82.2701 195.681 83.057C194.729 83.8439 193.961 84.8299 193.433 85.9453C192.905 87.0607 192.629 88.2783 192.623 89.5121C192.082 88.2312 191.867 86.8365 191.997 85.4525C192.127 84.0684 192.599 82.7381 193.369 81.5802C194.14 80.4223 195.186 79.473 196.413 78.8169C197.641 78.1608 199.012 77.8184 200.405 77.8203C200.953 77.821 201.5 77.8748 202.038 77.981C200.183 77.1006 198.071 76.9255 196.097 77.4884C194.122 78.0513 192.421 79.3137 191.313 81.0389C190.204 82.7641 189.763 84.8338 190.073 86.8601C190.384 88.8863 191.423 90.7301 192.998 92.0459C193.095 92.3543 193.21 92.6567 193.343 92.9517C184.081 96.6826 177.475 106.43 177.475 117.867C177.475 128.477 183.16 137.629 191.376 141.877C191.332 145.328 190.474 151.146 185.707 154.692C183.244 153.569 179.826 152.336 177.633 152.895C176.499 152.013 174.788 151.721 172.459 154.046C167.768 158.729 163.702 170.907 163.702 178.4C163.702 185.894 164.64 229.295 164.64 229.295C164.64 229.295 159.636 231.169 163.076 233.979C163.787 234.57 164.678 234.901 165.603 234.916L169.019 260.207C169.019 260.207 166.829 284.562 175.274 284.874C175.936 284.91 176.594 284.749 177.164 284.411L170.895 312.663C170.895 312.663 156.508 322.03 145.249 340.453C139.449 349.941 136.558 355.778 135.113 359.215L133.051 357.938L125.857 371.676C125.857 371.676 109.906 381.356 113.346 388.537C116.787 395.719 119.914 397.592 119.914 397.592L122.104 396.656L126.17 404.149C126.17 404.149 136.804 419.449 154.006 411.643C154.813 410.56 155.249 409.246 155.249 407.896C155.249 406.546 154.813 405.232 154.006 404.149C151.191 400.09 143.997 391.348 143.997 391.348L148.689 367.617L147.718 367.016L177.464 331.085C177.464 331.085 186.221 325.777 189.349 321.094C192.477 316.41 211.868 268.013 211.868 268.013L222.815 318.596C222.815 318.596 222.189 337.018 225.004 348.883C226.539 355.539 227.539 362.306 227.997 369.12L227.194 369.179L229.07 383.229C229.07 383.229 220.938 403.213 226.568 404.774C230.573 405.807 234.651 406.537 238.766 406.96L239.392 404.774C239.392 404.774 263.475 417.888 272.232 408.208C272.232 408.208 274.109 401.339 268.792 399.153ZM183.093 245.844C184.032 246.781 183.719 251.152 183.719 251.152L181.842 263.329L179.968 271.776C179.709 267.785 179.186 263.816 178.402 259.895L177.536 236.559C177.706 236.666 177.893 236.743 178.089 236.789C178.715 236.789 178.402 231.481 178.402 231.481C178.402 231.481 178.767 230.533 179.222 229.037C180.438 232.671 181.923 235.042 183.719 235.54L184.032 239.599C184.032 239.599 179.966 241.473 183.719 241.473C183.937 241.465 184.153 241.433 184.364 241.377L184.032 243.034C184.032 243.034 182.155 244.907 183.093 245.844Z" fill="#D0CDE1"/>
<path d="M263.446 413.699C402.302 413.699 514.867 411.847 514.867 409.562C514.867 407.277 402.302 405.424 263.446 405.424C124.59 405.424 12.0247 407.277 12.0247 409.562C12.0247 411.847 124.59 413.699 263.446 413.699Z" fill="#3F3D56"/>
<path d="M351.442 430.938C504.182 430.938 628.003 426.152 628.003 420.25C628.003 414.347 504.182 409.562 351.442 409.562C198.701 409.562 74.88 414.347 74.88 420.25C74.88 426.152 198.701 430.938 351.442 430.938Z" fill="#3F3D56"/>
<path d="M300.399 446.797C375.359 446.797 436.125 442.012 436.125 436.109C436.125 430.206 375.359 425.421 300.399 425.421C225.44 425.421 164.673 430.206 164.673 436.109C164.673 442.012 225.44 446.797 300.399 446.797Z" fill="#3F3D56"/>
<path d="M496.563 454.382C529.942 454.382 557 451.913 557 448.866C557 445.819 529.942 443.35 496.563 443.35C463.184 443.35 436.125 445.819 436.125 448.866C436.125 451.913 463.184 454.382 496.563 454.382Z" fill="#3F3D56"/>
<path d="M413.677 473C429.508 473 442.341 470.53 442.341 467.484C442.341 464.437 429.508 461.967 413.677 461.967C397.846 461.967 385.012 464.437 385.012 467.484C385.012 470.53 397.846 473 413.677 473Z" fill="#3F3D56"/>
<path d="M180.214 449.555C196.045 449.555 208.879 447.085 208.879 444.039C208.879 440.992 196.045 438.522 180.214 438.522C164.383 438.522 151.55 440.992 151.55 444.039C151.55 447.085 164.383 449.555 180.214 449.555Z" fill="#3F3D56"/>
<path d="M285.026 34.3275C285.852 34.3275 286.522 32.9899 286.522 31.34C286.522 29.6901 285.852 28.3525 285.026 28.3525C284.2 28.3525 283.53 29.6901 283.53 31.34C283.53 32.9899 284.2 34.3275 285.026 34.3275Z" fill="#FFB8B8"/>
<path d="M524.1 421.339C524.737 443.1 512 451.075 496.017 451.541C495.645 451.552 495.276 451.559 494.908 451.561C494.167 451.567 493.433 451.554 492.706 451.524C478.25 450.925 466.808 443.265 466.215 423.027C465.603 402.083 491.642 374.872 493.596 372.859L493.599 372.857C493.673 372.78 493.711 372.742 493.711 372.742C493.711 372.742 523.464 399.58 524.1 421.339Z" fill="#12DA97"/>
<path d="M494.866 448.243L505.019 433.17L494.887 449.865L494.908 451.561C494.167 451.567 493.433 451.554 492.706 451.524L493.209 429.721L493.195 429.553L493.214 429.52L493.262 427.46L482.143 411.344L493.249 425.918L493.289 426.354L493.669 409.881L484.065 393.171L493.696 406.987L493.596 372.859L493.596 372.745L493.599 372.857L494.237 399.754L502.99 388.828L494.265 402.071L494.457 416.806L502.511 402.426L494.486 418.972L494.592 427.166L506.306 407.134L494.628 430.024L494.866 448.243Z" fill="#3F3D56"/>
<path d="M153.876 388.931C154.512 410.692 141.776 418.666 125.792 419.132C125.421 419.143 125.051 419.15 124.684 419.152C123.942 419.158 123.208 419.146 122.481 419.115C108.026 418.516 96.5831 410.856 95.9911 390.618C95.3784 369.675 121.418 342.463 123.371 340.45L123.375 340.448C123.449 340.371 123.487 340.333 123.487 340.333C123.487 340.333 153.239 367.171 153.876 388.931Z" fill="#12DA97"/>
<path d="M124.642 415.834L134.795 400.76L124.662 417.456L124.683 419.152C123.942 419.158 123.208 419.145 122.481 419.115L122.985 397.312L122.971 397.144L122.99 397.111L123.038 395.051L111.919 378.934L123.025 393.509L123.064 393.944L123.445 377.471L113.841 360.762L123.472 374.577L123.371 340.45L123.372 340.336L123.375 340.448L124.012 367.345L132.765 356.419L124.041 369.662L124.232 384.397L132.287 370.016L124.262 386.563L124.368 394.757L136.081 374.725L124.404 397.615L124.642 415.834Z" fill="#3F3D56"/>
<path d="M430.52 452.018C430.894 464.791 423.418 469.472 414.036 469.746C413.818 469.752 413.601 469.756 413.385 469.757C412.95 469.761 412.519 469.753 412.093 469.736C403.607 469.384 396.891 464.887 396.543 453.008C396.184 440.715 411.468 424.742 412.615 423.561L412.617 423.56C412.661 423.515 412.683 423.492 412.683 423.492C412.683 423.492 430.147 439.246 430.52 452.018Z" fill="#12DA97"/>
<path d="M413.361 467.81L419.32 458.962L413.373 468.762L413.385 469.757C412.95 469.761 412.519 469.753 412.093 469.736L412.388 456.938L412.38 456.839L412.391 456.82L412.419 455.611L405.893 446.151L412.412 454.705L412.435 454.961L412.658 445.292L407.021 435.484L412.674 443.593L412.615 423.561L412.615 423.494L412.617 423.56L412.991 439.348L418.129 432.935L413.008 440.708L413.12 449.357L417.848 440.916L413.138 450.629L413.2 455.438L420.076 443.679L413.221 457.115L413.361 467.81Z" fill="#3F3D56"/>
<path d="M662.532 35.2961C662.552 35.2332 662.573 35.1695 662.593 35.1064C662.584 35.1341 662.573 35.1607 662.565 35.1884L662.532 35.2961Z" fill="#2F2E41"/>
<path d="M287.216 126.744C303.993 126.744 317.593 113.167 317.593 96.4181C317.593 79.6694 303.993 66.0918 287.216 66.0918C270.439 66.0918 256.838 79.6694 256.838 96.4181C256.838 113.167 270.439 126.744 287.216 126.744Z" fill="#AC2A0E"/>
<path d="M273.946 139.071L274.846 136.735L258.463 150.575L238.658 161.718C238.658 161.718 228.576 122.895 227.856 122.176C227.135 121.457 214.172 94.1373 208.411 107.078C202.65 120.019 219.574 127.568 219.574 127.568C219.574 127.568 220.114 174.839 237.398 174.48C254.682 174.12 276.107 158.483 276.467 157.045C276.827 155.607 273.946 139.071 273.946 139.071Z" fill="#FFB8B8"/>
<path d="M243.699 359.069L241.539 390.343C241.539 390.343 235.778 396.814 235.057 404.003C234.337 411.192 226.775 424.134 226.775 424.134C226.775 424.134 224.615 426.29 231.096 425.571C237.578 424.852 248.741 423.774 249.821 420.539C250.901 417.304 250.181 403.644 256.662 402.206V415.147H259.903L258.823 401.127C258.823 401.127 266.384 390.702 257.022 384.591L259.903 360.866L243.699 359.069Z" fill="#2F2E41"/>
<path d="M333 361.585L345.963 385.67C345.963 385.67 344.162 394.657 345.963 397.533C347.763 400.409 347.763 410.114 347.403 411.193C347.043 412.271 346.683 421.977 355.685 422.696C355.685 422.696 357.845 424.853 360.366 421.977C362.887 419.101 366.847 413.709 365.407 410.833C363.967 407.957 358.926 384.232 358.566 383.513C358.205 382.794 347.763 354.396 347.763 354.396L333 361.585Z" fill="#2F2E41"/>
<path d="M284.168 128.09C294.111 128.09 302.172 120.043 302.172 110.117C302.172 100.19 294.111 92.1431 284.168 92.1431C274.224 92.1431 266.164 100.19 266.164 110.117C266.164 120.043 274.224 128.09 284.168 128.09Z" fill="#FFB8B8"/>
<path d="M282.228 126.131C282.228 126.131 286.909 132.242 285.469 132.961C284.028 133.68 275.747 134.039 270.705 140.15C265.664 146.261 276.827 161.719 276.827 161.719L319.316 133.32L302.033 127.569C302.033 127.569 296.406 118.815 296.766 111.985L282.228 126.131Z" fill="#FFB8B8"/>
<path d="M327.599 134.399L315.356 130.085C315.356 130.085 268.545 152.013 269.265 153.091C269.985 154.17 269.265 161.719 269.265 161.719C269.265 161.719 262.424 166.392 265.664 177.176C268.905 187.96 276.107 188.32 275.027 189.758C273.946 191.195 273.586 199.823 273.586 199.823C273.586 199.823 217.413 285.737 222.095 349.723C222.095 349.723 271.786 383.154 278.627 361.586C246.931 368.909 284.23 371.651 284.23 371.651C284.23 371.651 293.751 372.01 308.154 371.651C322.557 371.292 355.325 366.618 352.444 355.475C349.564 344.331 326.158 298.318 328.679 265.606C331.199 232.894 311.395 204.496 311.395 204.496C311.395 204.496 315.716 195.509 313.555 194.071L337.321 158.124C337.321 158.124 337.321 137.634 327.599 134.399Z" fill="#2F2E41"/>
<path d="M327.772 136.517C327.373 136.294 326.93 136.159 326.473 136.124C326.017 136.089 325.558 136.154 325.129 136.314C324.7 136.474 324.312 136.725 323.99 137.051C323.669 137.377 323.423 137.768 323.269 138.199C322.184 141.175 321.086 147.38 321.477 160.281C322.197 184.006 322.557 200.182 322.557 200.182V236.129C322.557 236.129 306.714 270.639 315.356 270.639C323.998 270.639 330.119 243.319 330.119 243.319C330.119 243.319 338.041 201.979 335.52 194.79C335.52 194.79 342.628 145.123 327.772 136.517Z" fill="#FFB8B8"/>
<path d="M305.977 85.3034C314.124 85.3034 320.727 78.7108 320.727 70.5784C320.727 62.4461 314.124 55.8535 305.977 55.8535C297.831 55.8535 291.228 62.4461 291.228 70.5784C291.228 78.7108 297.831 85.3034 305.977 85.3034Z" fill="#AC2A0E"/>
<path d="M281.378 103.092C289.912 103.092 296.831 98.3828 296.831 92.5739C296.831 86.7651 289.912 82.0562 281.378 82.0562C272.844 82.0562 265.926 86.7651 265.926 92.5739C265.926 98.3828 272.844 103.092 281.378 103.092Z" fill="#AC2A0E"/>
<path d="M320.738 82.4529C317.039 82.4524 313.476 81.0645 310.754 78.5645C308.032 76.0644 306.35 72.6346 306.043 68.9551C306.009 69.3601 305.988 69.7685 305.988 70.1821C305.988 74.0874 307.542 77.8328 310.308 80.5942C313.074 83.3557 316.826 84.9071 320.738 84.9071C324.649 84.9071 328.401 83.3557 331.167 80.5942C333.933 77.8328 335.487 74.0874 335.487 70.1821C335.487 69.7685 335.466 69.3601 335.432 68.9551C335.125 72.6346 333.443 76.0644 330.721 78.5645C328 81.0645 324.436 82.4524 320.738 82.4529Z" fill="#AC2A0E"/>
</g>
<defs>
<clipPath id="clip0_372:703">
<rect width="662.593" height="473" fill="white"/>
</clipPath>
</defs>
</svg>
